<svg xmlns="http://www.w3.org/2000/svg" viewBox="0 0 512 512">
    <rect width="493.86" height="493.86" x="8.01" y="8.01" fill="#f2f2f2" rx="75.99" ry="75.99"/>
    <path d="M1493.3 360.25c-9.82 25.62-29.74 77.88-34.65 147.48V370.76c9.26.08 25.58-2.68 34.65-10.54m75.91-77.08c-16.44 10.39-30.04 10.43-42.28 7.82a19.65 19.65 0 0 0 11.26 11.41c-45.57 78.18-87.89 196.34-55.62 294.92h-23.92v15.11h47.08c-57.36-102.1-4.61-220.25 47.23-310.94 8.96-3.85 15.08-9.52 16.21-18.29zm-145.21 77.08c9.82 25.66 29.74 77.88 34.65 147.48V370.72c-9.26.08-25.58-2.65-34.65-10.5m-75.91-77.08c16.44 10.35 30.04 10.39 42.28 7.78a19.65 19.65 0 0 1-11.26 11.41c45.57 78.22 87.89 196.34 55.62 294.92h23.92v15.11h-47.08c57.36-102.1 4.61-220.25-47.23-310.94-8.96-3.85-15.08-9.48-16.21-18.25zM283.05 259.4c-7.75 20.18-23.43 61.36-27.28 116.15V267.64c7.25.04 20.14-2.12 27.28-8.31m59.78-60.68a41.56 41.56 0 0 1-33.29 6.12c1.13 3.48 4.23 7.1 8.88 8.99-35.9 61.59-69.26 154.7-43.83 232.31H255.81v11.9h37.07c-45.19-80.41-3.63-173.44 37.22-244.93 7.07-3.02 11.86-7.48 12.77-14.36zM228.45 259.33c7.75 20.22 23.43 61.36 27.28 116.15V267.56c-7.25.08-20.14-2.12-27.28-8.31M168.68 198.6a41.56 41.56 0 0 0 33.29 6.16 15.11 15.11 0 0 1-8.88 8.99c35.9 61.59 69.26 154.7 43.83 232.31h18.82v11.86h-37.07c45.19-80.41 3.63-173.44-37.22-244.93-7.07-3.02-11.86-7.48-12.77-14.36z"
          color="#000"/>
    <circle cx="253.96" cy="217.84" r="32.95" stroke="#000" stroke-width="9.45"/>
    <circle cx="253.96" cy="91.78" r="32.95" fill="#fff" stroke="#000" stroke-width="9.45"/>
    <circle cx="318.16" cy="158.85" r="32.95" fill="#fff" stroke="#000" stroke-width="9.45"/>
    <circle cx="191.8" cy="159.68" r="32.95" stroke="#000" stroke-width="9.45"/>
</svg>
