<svg xmlns="http://www.w3.org/2000/svg" viewBox="0 0 20 20">
    <defs>
        <radialGradient id="ga" cx="5" cy="5" r="25" gradientUnits="userSpaceOnUse">
            <stop offset="0" stop-color="#eed8a1"/>
            <stop offset="1" stop-color="#a88131"/>
        </radialGradient>
    </defs>
    <path fill="url(#ga)" d="M0 0h20v20H0z"/>
    <path fill="#c87137"
          d="M.01 0v4.41c.2.14.18 1.55.17 1.32.03.62 0 1.17.01 1.8.24 2.16.19 4.23.24 6.4.19 1.46.03 2.93.14 4.38q0 .85.02 1.69h.08q-.12-3.06-.08-6.1c-.13-1.55 0-3.1-.17-4.64C.3 6.86.36 4.4.07 2.04c0-.76.02-.66-.03-1.33V0zm.2 0L.2.2c-.04.3.1.94.12.93v.25l-.04.02q.03.04.04.02c.01.38.06.87.08.61-.02.42-.08 1.43-.02 1.11.1-.37-.04 1.73.02.82.18.52.07 1.28.1 1.9q0 .83.04 1.58c-.04.6.11 1.2.06 1.77.15.28.2 1.63.11 1.24.19 1.28 0 2.57.08 3.86-.08 1.56.2 3.1.06 4.66q.05.5.06 1.03h.06c-.02-1.56 0-3.12-.09-4.68-.05-1.87.09-3.73-.05-5.6 0-1-.2-1.9-.16-2.9C.59 4.53.58 2.25.39 0zm.33 0c.04.71.08 1.46.18 2.16.06.44.07.9.12 1.3-.06.2-.09 1.26-.04 1-.03.23.04.57.01.51.09.92.17 1.73.2 2.66-.03 1.73 0 3.49.14 5.2.02.95.01 2.04-.03 3.03q.14 2.05.13 4.14h.06q0-2.18-.12-4.33c.15-1.78.03-3.56-.09-5.34-.01-2.37.01-4.74-.18-7.1C.85 2.15.74 1.08.67 0zM.9 0l.06.46Q.92.73.98.62c.06.47.1.87.05.7-.04.78-.02 3.12.07 2.51.1.23.14 1.44.12 1.08.02 1.91.18 3.81.13 5.72l.19 6.25c.1.8.05 1.6.08 2.4.1-2.66-.16-5.34-.17-8-.06-2-.02-3.98-.13-5.96Q1.22 2.9 1.05.48l.12-.3c-.04.3.05.74.08.48.01.06.03 1.43.05 1.1.01.13.14.92.08.67 0 .95 0 1.05.03 1.67-.01.58.05 1.34.04 1.82.06.52.1 2.36.1 1.87.1.92.17 4.18.14 3.15q.02 4.53.11 9.06h.06c-.05-2.9-.12-5.8-.06-8.7-.14-3.77-.33-7.53-.4-11.3h-.36l-.02.11v-.1zm.64 0c.05.47.06 1 .07.96.01.37.08 1.32.02.98-.01.4.1 1.55.11 1.37 0 .62.03 1.74.01 1.19 0 .4 0 1.3.04.8.02.68.07 2.78.06 2.92.18 2.1.15 4.24.25 6.36-.05 1.8.05 3.61.05 5.42h.06c.04-1.51-.15-3.03-.07-4.54.04-2.32-.1-4.63-.16-6.94-.2-2.03.02-4.08-.2-6.12L1.68 0zm.37 0c.03.58 0 1.1-.01 1.15.04 1.16.15 2.28.16 3.45 0 1.83.2 3.64.13 5.48.07 2.42.2 4.84.16 7.25.08.88 0 1.81.1 2.67h.01c-.07-2.3.07-4.6-.12-6.88-.02-1.88-.11-3.76-.1-5.64-.11-2.5-.15-4.99-.28-7.48zm.17 0c0 .09 0 .2.05.83.22 1.68.1 3.46.2 5.19.12 1.81 0 3.65.23 5.45-.15 2.32.27 4.64.09 6.97L2.64 20h.05a126 126 0 0 1 .06-3.63c-.18-1.9-.12-3.8-.17-5.7-.1-1.47-.05-2.95-.18-4.4.03-2.1-.12-4.18-.17-6.27zm.47 0 .02.23zm.03.57c0 .39-.02.58-.09.3.1 1.64.03 3.28.08 4.92.05.86.17 1.75.13 2.66.02 2.12.17 4.23.13 6.35.1 1.73.1 3.46.1 5.2h.05c0-1.64 0-3.28-.08-4.92q0-2.9-.12-5.79.02-2.2-.14-4.4.02-2.16-.06-4.32M2.71 0a5 5 0 0 1 0 1.06c.1 1.8.12 3.47.2 5.27.07 1.34-.02 2.87.1 4.28.22 3.12.02 6.26.2 9.39h.01c.02-1.39-.08-2.77-.04-4.15.03-1.88-.06-3.75-.09-5.63-.18-1.5 0-3-.12-4.5Q2.85 2.85 2.77 0zm.19 0-.02.11c.04.69.17 1.3.15 2.01-.01 1.43.2 2.83.17 4.25.04.82.17 3.25.09 2.56.1 3.54.08 7.08.1 10.63.11-1.57 0-3.15.03-4.71 0-4.74-.15-9.48-.35-14.2L3.01 0zm.3 0c.13 3.24.32 6.48.32 9.72.07 2.66.07 5.32.13 7.98-.04.43-.02.99-.01 1.36 0 .55.11 1.43.06.41-.05-1.13.05-2.25-.02-3.38L3.5 5.2c-.12-1.73-.14-3.47-.2-5.2zm.23 0c.03.52.07.8.08 1.34.01 1.24.2 2.5.12 3.78.09 1.68.04 3.46.13 5.19q.14 4.47.17 8.96c.08.17 0-1.91.03-1.1q.01-2.85-.1-5.7c-.04-2.76-.15-5.53-.14-8.3Q3.64 2.11 3.5 0zm.26 0 .06 1.81c.25 2.75.1 5.52.29 8.28 0 1.51.07 3.02.08 4.54.14-1.23-.07-1.29.01-2.03.01-2.7-.2-5.38-.15-8.07Q3.83 2.27 3.8 0zm.06 1.81v-.08c.02.83.02.62 0 .08M3.98 0l-.01.48c.13 3.04.25 6.08.26 9.12.14 2.35 0 4.72.18 7.05a12 12 0 0 0-.04-1.54Q4.36 10.55 4.23 6c0-2-.13-4-.19-6zm-.03.8q-.02.28 0 0M4.2 0c.1 2.03.12 4.06.18 6.1q.1 2.6.12 5.2c.13 2.55.02 5.05.16 7.62L4.64 20h.04q0-1.46-.05-2.9c-.03-2.3 0-4.64-.11-6.94.12-1.85-.14-3.72-.09-5.58-.1-1.52-.06-3.05-.11-4.58zm.32 0 .05.91C4.6.8 4.6.42 4.57 0zm.05.91q-.02.11-.06-.09c.06 2.72.06 5.43.23 8.14-.08.89.05 1.94-.02 2.88.14 1.52.03 3.06.07 4.59.03.6-.05 1.21.05 1.8 0-2.97.05-5.94-.07-8.9 0-2.1-.18-4.19-.15-6.29q.02-1.06-.05-2.13m.13-.9q-.03.15-.07.01c.07.6.1 1.4.11 2.07.2 2.02 0 4.05.17 6.08 0 2.77.2 5.53.13 8.3 0 .5-.02 2.43.02 2.26.01-2.8.11-5.62-.05-8.42 0-1.88-.16-3.76-.11-5.64.04-1.56-.1-3.11-.16-4.67zM5 0l.01.26zm.01.26c0 .24-.03.37-.08.25.22 2.3.05 4.62.2 6.93.05 1.68.01 3.36.14 5.03-.06-2.55-.03-5.1-.15-7.65a91 91 0 0 0-.1-4.56m.2-.27.04 1.47A7 7 0 0 0 5.24 0zm.04 1.47q-.02.05-.06-.13c-.02.05-.01.72 0 1 .07.88 0 1.83.1 2.73 0 1.41.08 2.77.06 4.2.04 1.22.01 2.43.11 3.66q-.02 3.43.06 6.84l.04-1.48c-.07-2.59 0-5.18-.13-7.76 0-3.02-.1-6.04-.18-9.06m-.07.87v-.05zM5.37 0c.06 1.01.13 2.04.1 3.07-.02 1.57.12 3.18.1 4.71q.1 2.25.11 4.53.05 2.18.05 4.34c.13-.52.01-1.16.05-1.73-.04-1.99-.04-3.97-.1-5.95-.08-1.4.01-2.82-.13-4.22Q5.56 2.38 5.48 0zm.3 0 .02.27L5.7 0zm.02.27q-.04.16-.09 0c.06 1.3.06 2.6.14 3.91-.06.83.04 2.4.03 2.08q.1 2.48.09 4.95c.03 1.95.12 3.9.05 5.85.14-.39.13-1.94.08-1.48-.03-2.36-.12-4.73-.08-7.1zM5.86 0l.01.17zm.01.17.04 1.13c0-.28-.01-.7-.04-1.13m.04 1.13c0 .33-.03.45-.07.13.15 2.84.12 5.75.24 8.55.06-.45 0-2.16 0-1.64Q6.02 4.8 5.9 1.3m.22-.13c-.02.16-.04.2-.07-.01.04.92 0 1.9.09 2.78 0 1.66.05 3.4.06 5.07a8 8 0 0 1 .08 1.17c.04 1.5 0 3 .07 4.49.03.63-.02 1.3.05 1.91.06-.28.04-1.6.02-1.21-.07-1.87-.04-3.74-.09-5.6-.07-1.21-.06-2.42-.12-3.62.04-1.66-.04-3.32-.1-4.98M6.3 0c.08 1.07.06 2.13 0 1.52.1 5.26.28 10.52.3 15.78.1-.82.04-3.95.02-3-.01-2.32-.13-4.65-.1-6.98-.1-2.44-.13-4.88-.19-7.33zm.18 0c.04 1.9.03 3.8.13 5.7.01 1.01 0 4.32.01 3.25.2 2.24.07 4.5.17 6.75.04-2.34.06-4.67-.12-7q.04-4.35-.1-8.7zm.22 0c.07 1.42.04 2.92.12 4.3.02.63.03 3.04 0 2.3-.04 1.06.07 2.11.14 3.17q.05 5.1.07 10.23h.04l.01-.8c-.05-3.18-.04-6.36-.06-9.54-.2-3.22-.1-6.44-.25-9.66zm.18 0q.12 3.2.14 6.4c.05.75.12 2.84.09 2.17.01 1.5.06 3.01.03 4.46L7.23 20h.05c0-2.22-.09-4.43-.06-6.65-.01-3.78-.17-7.56-.2-11.34l-.08-2zm.27 0c-.02.12-.05.16-.08.04.08 1.61.19 3.21.14 4.84.08 4.49.22 8.97.2 13.47.1-.59.1-3 .06-2.29-.04-3.09-.12-6.18-.15-9.27-.1-1.05-.02-2.16-.05-3.23.03-1.19-.07-2.37-.1-3.56zm.24 0v.03zm0 .03.07 1.46c.01-.25-.02-.85-.07-1.46m.07 1.46c0 .17-.02.2-.07-.05.1 1.74-.02 3.5.06 5.23.13 3.1.04 6.26.18 9.38V20h.04q-.05-.96.01-1.92l-.12-11.4c-.11-.93-.02-1.93-.05-2.89a39 39 0 0 0-.05-2.3m.1-1.5c.02.71 0 1.26-.02.86.2 6.2.21 12.4.32 18.6-.01-2.55.01-5.12-.04-7.69-.1-3.92-.06-7.84-.24-11.76zm.18 0c.05 1.86-.02 3.7.13 5.57 0 .65 0 2.82.01 2.7-.02 1.05.06 2.11.1 3.15.02 2.1.02 4.26.03 6.31q.06 1.11.03 2.28h.05q.03-1.73-.04-3.46c-.01-2.67.03-5.34-.1-8 .04-1.81-.03-3.61-.11-5.42L7.82 0zm.28 0v.36V0zm0 .36c0 .18-.03.24-.07.08.03 1.2.02 2.52.09 3.65.12 1.52-.01 3.17.07 4.74.13 3.3-.03 6.61.15 9.92q-.04-7.2-.13-14.4c-.07-1.33-.07-2.66-.1-3.98M8.18 0l.02 1.15c.04-.13.04-.62.01-1.15zm.02 1.15q-.03.1-.07-.1c.09 3.9.14 7.81.24 11.72-.03 2.4.02 4.82.04 7.23h.05q0-2.2-.05-4.4c.02-4.82-.12-9.64-.21-14.45M8.29 0q0 1.32.1 2.67c0 2.28.1 4.49.08 6.76.09 2.5.09 5 .18 7.5.05-3.32-.17-6.65-.1-9.97-.06-1.65-.05-3.3-.08-4.94q-.1-1.01-.1-2.02zm.3 0c.07 1 .07 1.97 0 1.38.05 4.4.06 8.8.18 13.21-.03.46.01 2.15.05 3.23q.04-3.2-.06-6.42c-.07-3.5-.04-7-.1-10.49L8.61 0zm.23 17.83v.42l-.03.05.04.1v.1l-.01.17c-.04.65.04 1.64.02.49v-.76c.01 0 .01-.13-.01-.14zM8.78 0c.03.86.01 1.63-.03 1.12.03 2.24.1 4.47.12 6.7-.06.16-.12 1.8-.02 1.5.07.52.08 1.66.04 1.15.04 1.59 0 3.34.09 4.85.08-2.11 0-4.27-.03-6.4Q8.92 4.44 8.8 0zm.13 0q-.01.2-.03.17.22 7.06.26 14.13c.13-.14.09-1.49.05-1.15-.03-4.07-.06-8.14-.21-12.2L8.97 0zm.2 0L9.1.46q.1 3.31.14 6.67c0 3.88.12 7.76.14 11.63.12-.52.05-1.38.04-1.2-.06-2.85-.02-5.7-.1-8.55q0-3.08-.09-6.14C9.27 1.92 9.21.96 9.19 0zM9.1.46V.33zM9.4 0c.03.69 0 1.24-.05.83.07 3.12.03 6.2.13 9.31.04 2.45.01 4.9.07 7.35.02-3.53.05-7.07-.07-10.6q0-3.45-.07-6.9zm.08 0c.02.67.01 1.35.06 2 .02 1.7 0 3.36.07 5.09.13 3.74.02 7.48.12 11.22.02.56-.03 1.13.01 1.69h.03c-.06-4.26.01-8.53-.06-12.8-.14-2.4-.07-4.8-.15-7.2zm.18 0v.92q-.06.31 0 .32l.01.45c0 2.22.18 4.38.15 6.59.1 1.76-.01 3.56.06 5.34q-.01 1.78.05 3.56c-.03.64.01 1.81.04.54.07-1.12-.14-2.23 0-3.35-.14-3.89 0-7.78-.21-11.67q-.02-.75-.02-1.52l.1-.15q.18 5.46.18 10.91c.04.47.13 1.67.12.59-.2-3.32 0-6.65-.2-9.97Q9.9 1.3 9.94 0H9.8l-.07.43V0zm.45 0c.01.68-.03 1.23-.07.82-.01 1.13.02 2.48.02 2.03 0 2.03.12 4.05.1 6.08a154 154 0 0 1 .07 6.8c.13-.63.02-1.35.06-2.02.03-2.39-.08-4.77-.07-7.16-.12-2.18-.08-4.37-.1-6.55zm.17 0v.04zm0 .04c0 .26-.03.39-.07.18q.06 3.64.15 7.26c.02 2.23.08 4.48.06 6.72.11-.99 0-2.03.03-3.04.02-3.7-.09-7.41-.17-11.12m.18-.04v.54q.03-.2.02-.54zm0 .54q0 .27-.06.08c.03.8.02 1.73.05 2.47.04 2.18.1 4.37.08 6.55q.07 2.7.05 5.39c.12-2.79-.05-5.59-.02-8.38zm.09-.55q.1 5.36.17 10.73c.06 1.9-.03 3.88.07 5.75.02-1.55-.03-3.23-.02-4.82 0-3.89-.12-7.78-.15-11.66zm.2 0c0 .26-.02.4-.04.22 0 1.56.12 3.16.1 4.69.03.3.05.98.06.21.03-1.7-.09-3.42-.1-5.12zm.2 0c.03.96 0 1.91-.02 1.89.06 2.95.07 5.92.12 8.85.09.7.02 1.5.07 2.21.02-3.3-.13-6.6-.11-9.9L11 0zm-.02 1.89V1.5zm.2-1.9.02 1.76c.02-.32.02-1.04-.01-1.75zm.02 1.76c-.01.21-.03.25-.05-.01-.01 1.8.1 3.65.05 5.43.1 1.3-.02 2.66.15 3.97-.09-2.93-.04-5.86-.15-8.8zm.1-1.75v1.45c0 1.5.1 3 .13 4.51.05-1.91-.11-3.83-.08-5.74L11.29 0zm.3 0c0 1.3 0 2.6.11 3.89 0-1.3-.06-2.6-.07-3.9zm.18 0c.03 1.56-.05 3.15.1 4.7q-.05-2.36-.05-4.7zm.06 0c-.01.2 0 .27.09.11 0 2.68.1 5.37.2 8.05-.04-2.72-.13-5.44-.15-8.16zm.25 0c0 1.35.01 2.74.1 4.05.01-1.32-.05-2.69-.06-4.05zm.2 0-.01.53c.09 1.53-.01 3.1.1 4.64.03-1.72-.06-3.45-.07-5.17zm-.01.53-.01-.15zm.19-.53.02.27V0zm.02.27q.01.98.04 1.95c.11.22.03-1.04-.04-1.95m.16-.27v.53c.02-.08.03-.29.04-.53zm0 .53q0 .13-.04-.06c0 .52.02 2.03 0 1.48q.04 3.32.16 6.62A682 682 0 0 1 12.6.53m.13-.53q.02 2.92.09 5.85c.07-1.95-.03-3.9-.05-5.85zm.14 0c.01.4.08.55.05 0zm.2 0c.02.5.04 2.52.06 1.09q.01-.54-.03-1.1h-.01c0 .17 0 .2-.02 0zm.2 0c0 .74-.06 1.52 0 2.24.06-.58 0-1.34 0-1.99zm0 .06q.03.05.03-.06h-.02zm.24-.06.03.22c.02.86.04.34.04-.22zm.18 0q0 1.14.06 2.3.02-1.16-.01-2.3zm.2 0a70 70 0 0 1-.12 3l-.01-.23v.35c-.03.56-.04.73 0 .12l.06 3.17c.06-1.1.01-2.21-.04-3.31l.12-1.47q.04 2.25.12 4.46l-.1-6.1zm.16 0c.02 2.3-.16 5.78.03 1.48.04 1.3.02-.99.01-1.48v.04V0zm.17 0c-.04.06-.05.93.01.25l.03-.17zm.02 0q0 .02.01 0zm.16 0c.01 1.09 0 2.19.06 3.26.04-.84-.02-1.89-.02-2.8V0zm.2 0c.07 2.18-.02 4.44.07 6.65.06-.7.03-4.34.01-3.32q0-1.66-.03-3.33zm.23 0 .03 1.4c.04-.06.07-.71.04-1.4zm.03 1.4q-.03.04-.05-.14.07 4.47.07 8.94.07-4.4-.02-8.8m.1-1.4c.02.37.05.63.05 0zm.16 0c0 .47-.05 1.5.05 1.77q0-.9-.02-1.77zm.11 0c0 .35 0 .59.05.38.13.22.07 1.62.03 1.24-.02 1.7 0 3.49.08 5.15.04-1.65-.1-3.43-.03-5.13q.04-.82 0-1.64zm.3 0v1.27c.04-.09.06-.66.03-1.27zm0 1.27q0 .06-.04-.13c-.01 2.1 0 4.25.07 6.34.05-.74 0-1.7 0-2.5q0-1.86-.02-3.7m.1-1.28c.02.62.04 2.02.1 2.16L15.7 0zm.15 0q0 .88.04 1.73l.11 8.13c.08-.89.04-3.97.01-3L15.86 0zm.17 0q0 1.23.06 2.4c.02 1.3.03 2.64.1 3.93.04-.46-.02-1.14 0-1.68.02-1.55-.09-3.1-.1-4.65zm.26 0c.01.49 0 .82-.05.52.04 1.27.05 2.72.06 3.88.03.52.02 1.37.02 1.2 0 1.93-.02 3.85.05 5.76.07.35.02-1.28.02-1.2q0-5.1-.1-10.16m.17 0 .02 1.32c.04-.14.05-.71.02-1.32zm.02 1.32q-.02.11-.06-.12c.01.57 0 1.37.06.44zM16.54 0c0 1.52-.08 3.05.09 4.55q-.06-2.27-.06-4.55zm.18 0v.26zm0 .26c0 .29-.02.42-.04.18.02 3.1.13 6.2.1 9.29.11-1.86 0-3.73.01-5.59q-.06-1.94-.07-3.88m.1-.26q.06 2.09.08 4.19c.05-.22.02-2.83.02-2.16Q16.9 1 16.86 0zm.25 0v.04zm.01.98c0 .3-.03.41-.05.13.04 3.16.03 6.35.07 9.5-.02.26.06.9.05.22-.05-3.28-.04-6.57-.07-9.85M17.2 0c0 .7-.05 1.41 0 2.07.04 3.54.04 7.08.13 10.63q-.04-6.36-.1-12.7zm.2 0v.9c.03-.13.04-.5.03-.91zm0 .91q0 .13-.04-.06c0 .45 0 1.52.06 1.88zm.15-.91-.01.16zm-.01.16q-.01.03-.02 0 0 .05.02 0m.08-.16q.02 1.2.08 2.39L17.68 0zm.23 0 .02 1.66c.07.15.1-.75.05-1.66zm.02 1.66-.03-.16c.02 1.23-.01 2.47.01 3.71q.09-1.77.02-3.55M17.94 0q.01.96.08 1.91 0-.95-.04-1.91zm.15 0q.02.38.06.73V0zm.16 0c.02.73.03 1.52.07 1.36L18.29 0zm.16 0c.02.42.06.66.04 0zm.16 0c0 .2 0 .14.02 0zm.16 0c0 .5.02.94.04.99V0zm.14 0c-.01.31.02.19.05 0zm.27 0c0 .73.03 1.76.09 1.9L19.18 0zm.34 0q0 .14 0 0m.3 0v.22c.07.58.03-.2 0-.22m-.48.06c0 .74.13.33 0 0m-7.86.02-.01.07c-.02.36-.03 1.45.03 1.8-.01-1.21.02-1.27-.02-1.87m1.98.04q-.02-.02-.01.41v.91q0 1.31.05 2.62c.07-1.1-.05-2.24-.02-3.34.02-.3 0-.6-.02-.6m6.08.05-.01.31c.03 1 .03-.3.01-.3m-1.98.1c-.06-.01.01.34-.01.4.03.3.06.92.07 1.39L17.55.3zm.06 1.8q0 .27-.02.53c.03.29.03-.05.02-.53M18.88.3l-.02.2c.03.45.04-.2.02-.2m-5.97.15c-.07 0 .02.15 0 .2.07.82 0 1.75.07 2.53.05-.85-.02-1.83-.04-2.73zM19 .47v.06zm.8 0v.1zm.14.05-.02.04c.04.15.04-.05.02-.04m-.62.02c0 .34.1.34 0 0M15 .58l-.02.07c.02.19.04-.07.02-.07m4.96.12-.01.11c.06.29.03-.1.01-.1M18.86.7v.05zm-.27.01c-.01.55 0 1.7.05 2.07zm.44.05-.02.06c.02.4.05-.07.02-.06m-4.04.01-.02.17V1c0 .64.04-.23.02-.23M.53.8.49.82C.54.89.56.8.53.79m13.72.05-.02.11c0 .3.03-.1.02-.1m3.9.02v.78c-.03.66.07 1.59.05.46 0-.3-.04-1.24-.05-1.24m1.65.05v.34c-.02.87.03.09 0-.34m-.16.06v.06zM.19 1v.04zm18.69 0c0 .42.07.04 0 0m.46.04v.25zm-5.07.02-.02.07.07 4c.07-1.36-.03-2.71-.05-4.07m5.37.03v.07zM.26 1.13v.08zm18.77.07v.57c0 .76 0-.73.03 0q-.02-.59-.03-.57m-.6.14v.06zm1.19 0c-.01.27.09.5 0 0m-.85.01q-.02-.01-.02.35v.42c.02 1.18.07.75.05-.04.02-.25-.01-.72-.03-.73m.12 0v.11zm-3.91.05-.01.4v.25c-.02.42.1 1.25.05.39a9 9 0 0 0-.04-1.04m4.53.13c0 .49.04.16 0 0m-1.2.05-.01.06zm1.06 0-.02.18V2c.04 1.2.06-.4.02-.41m-.93.01.01.33v.03-.36m1.2.04v.1zm-6.5.07q-.03 0-.04.06c.05.15.06-.05.03-.06m6.82.02v.3zm-1.06.02q0 .65 0 0m-.59 0v.06zm-4.74.01c-.05.43 0 1.22.01 1 .04.52.07 1.22.06.19 0 .06-.03-.43-.05-.23V2.1zm4.77.08v.08zm1.48.01v.3c.05.85.02-.31 0-.3m-6.66.07-.02.02c-.14.46.06-.02.02-.02m6.5.04q-.02 0-.02.05c.05.23.03-.04.01-.05m-4.5.02c-.05.04.01.25 0 .33.1.96-.01-.27 0-.33M14.1 2v.23q-.02.02-.02.08c.07.56 0 1.3.09 1.8a17 17 0 0 0-.07-2.1m4.22.08c-.03 0 .03.85.04 1.34 0-.47 0-1.13-.04-1.3zm.89.03v.05zm-1.2.02v.35zm0 .35v.03c-.03.61.07 1.37.05.39 0-.14-.03-.22-.04-.42m1.5-.34c-.02.12.08 0 .02 0m-8.08.02h-.03c-.03.66.11 1.3.06.24-.02-.05.03-.25-.03-.24m1.66 0v.25c.02.69.01-.26 0-.25m-11.52 0v.05zm18.06.04c-.07.42.1.04 0 0m-18.33.03v.06zm15.05 0c-.05.23.05 1.64.04.82-.02-.27.01-.55-.04-.82m-3.11.19c-.01 1.3.05.02 0 0m2.46 0-.02.25-.02 2.92c.08 1.25.04 2.55.1 3.82.02.68-.05 1.38.03 2.03.06-2.77-.11-5.54-.07-8.32.02-.11 0-.7-.02-.7m-3.28.02v.05c-.08-.11 0 .26-.03.3.05.8.04-.37.03-.35m5.25.02v.26zm1.22.06v.07zm.73.03c0 1 .08.32 0 0m-5.9.02c-.04.42.04.44 0 0m5.3.03c0 .45.1.2 0 0m-1.52.04v.28c.03 1.78-.05 3.6.11 5.37-.06-1.88-.03-3.77-.1-5.65m1.85 0-.02.07c.02.2.04-.06.02-.07m-.47 0v.08zm1.04.04-.02.12c0 1.56.05-.12.02-.12m-.45.05-.01.06zm-1.33.03v.1c.07.57.01-.1 0-.1m-5.05.02-.02.26c-.01.5.03 1.99.03.69zm6.25 0v.06c.08.16.04-.05 0-.05m-.45.02v.07zm-.42.07-.02.21c.04.57.04-.2.02-.21m1 0v.07c0 .2.01-.06 0-.07m-4.33 0c-.1.36.14.18 0 0m3.92.04-.03.07c0 .58.05-.06.03-.07m-4.1.02v.1c.02 1.86 0 3.75.07 5.6.04-.6-.01-1.4 0-2.08-.04-1.2 0-2.42-.05-3.6zm4.35.02v.06zm-1.97.05c-.01 0-.02.08-.02.33.05.87.04-.31.02-.33m.77.02v.1zm.6 0c0 .41.07.36 0 0m1.05 0v.1zm-2.17.02c-.01.22.14 1.2.02.09v-.02zm-4.35.02q-.02 0-.03.16c.05.8.06-.16.03-.16m-1.8.01-.03.05c.05 2.33.02 4.67.13 7 .1-.84-.07-1.74-.02-2.6-.03-1.48-.01-2.97-.09-4.45m7.44.04c-.08.26.1.3 0 0m.43.02v.04c.02.13.01-.04 0-.04m.14 0v.04zm-.87.02c-.05.27.03 1.7.04.71-.01-.21.02-.63-.04-.7m-3.46.03c-.04.95.11.5 0 0m-2.21.06v.31zm6.86 0v.1zm-.74.02v.1zm-18.28 0v.05zm17.38.03v.08zm-5.72 0-.01.27c-.02.59.02 2.25.04.78a8 8 0 0 0-.03-1.06m6.8.01-.02.14c.04.64.05-.13.02-.14m-.47.01v.05zm-.28.01-.02.09c.01.22.04-.09.02-.09m.44.04v.1zm-2.52.04-.02.04c0 .76-.01 1.59.09 2.32q-.01-1.17-.07-2.36m1.63.08c-.1.82.1.3 0 0m.73.05v.06zm.59.02-.01.05c.02.13.01-.04 0-.05m-4.89 0v.1zm-1.2.01c-.03 0 0 .07 0 .1-.01.4.02 1.2.04 1.79 0-.64.02-1.3-.02-1.89zm.33.04.03 1.36c-.04.43.09 2.7.05 1.07-.05-.8.03-1.66-.08-2.43m4.58 0c0 .72-.09 1.49 0 2.18 0-.68.07-1.8 0-2.18m1.34.05-.03.05c.05.11.06-.04.03-.05m-2.2.02a3 3 0 0 0 .05.7v-.64zm.03.74c-.02.31.05 1.15.05.44zm1.42-.74v.05zm.88.03v.06zm-1.93.03-.03.06c0 .31.07-.06.03-.06m1.35.01v.08zm.15 0c-.01.27.11 0 0 0m-4.75.03-.02.11c.05.4.04-.11.02-.11m5.05 0v.06zm0 .12V4zm-.74 0c-.1.28.11.03 0 0m-.3.02h-.02q0 .22.02.23c.02-.04.02-.23 0-.23m-.16.03v.1zm.91.03c-.1.37.13.21 0 0M.06 4l.03.08c-.1.07-.07-.07-.03-.07m11.59 0-.01.4v.28c.02.53.07 1.65.05 1.4.08 1.02-.03-1.76 0-1.1.02-.28-.02-1-.04-.98m8.04 0-.01.07zm-6.7 0q-.03 0-.04.05c.05.11.06-.04.03-.04m6.85.01v.06zm-.76 0c.02.54.05.28 0 0m.32.01-.03.05c.04.15.05-.04.03-.05m-.57.04v.06zm.11 0c0 .22.08.01 0 0m1.03 0v.1zm-19.9.03v.06c-.02.08-.01-.05 0-.06m.71.02v.05zm11.37 0q.04 2.67.13 5.3c-.02-1.76-.02-3.57-.13-5.3m2.34.02v.06zm5.03 0v.06c.09.16.04-.05 0-.05m-6.03 0-.02.23v.05c.04.75.04-.27.02-.28m-.5 0c.01.43.05.13 0 0m5.35 0c-.11.04.04.21 0 .04zm1.37.05v.04zm-5.53 0v.26zm3.56.01v.3zm1.68 0v.1zm-.15.05c-.02 0-.02.57-.02.62.01 1.23.04-.37.04-.5q0-.13-.02-.12m.02.12q0-.02 0 0m-4.8-.08.01.36q-.03.4.03.85c-.03-.39.07-.89-.04-1.2m4.49 0h-.04c.02.05.06-.01.04 0m-3.78 0c-.06 1 .08.48 0 0m3.19 0-.03.01c-.04.13.06-.01.03-.01m.3.02-.04.05c0 .35.07-.06.04-.05m-1.75.03v.06zm2.16 0v.23zm0 .22-.01.02zm-1.04-.22c-.02.4 0 1.19.02 1.8 0-.8.02-1.78-.02-1.8M.02 4.44v.58zm0 .58v3.62c0 1.4.05 2.82 0 4.23v.31c.07-.14.02.08-.02.26v.14l.01-.02c.07.02.2 1.8.2 1.72Q.29 17.64.26 20h.07c.02-1.55.07-3.1-.04-4.65q-.21-2.28-.14-4.56C.14 9.67 0 8.55.06 7.43zm18.47-.58-.01.03c-.01.7.03 1.26.02.3zm.3 0-.03.15c.01.45.05-.15.03-.15m.73 0v.11zm.14 0c0 .37.07.24 0 0m-6.58 0c0 .48.09.21 0 0m6.3 0v.08zm-6.4 0-.01.1zm5.37.04c-.1.71.07.89 0 0m-1.43.05v1.53c0 .52.03 2.26.04.87-.04-.79.06-1.65-.04-2.4m3.03.04v.04l.04.08v-.04q-.01-.06-.04-.08m-2.23.02-.01.25c.02.84.01-.02 0-.25m1.67.03c-.05.97.09.79 0 0m-.44.02v.05zm-5.96 0v.1zm3.61.02q-.02 1.62 0 3.16 0 2.19.06 4.38c0-2.51.03-5.03-.06-7.54m-4.77.1v.34c-.02 1.23.06 2.39.06 3.65q.02 1.8 0 3.62c.13-2.31 0-4.63-.01-6.95 0-.16-.03-.67-.05-.66m2.33.03v.07zm4.8 0-.01.07zm1.04 0-.02.32c.04.86.03-.3.02-.32m-6.86 0v.1zm5.67 0-.02.2c-.07.63.04 1.38.03.4zm-5.32.03-.02.15c.05.63.04-.14.02-.15m6.22.06v.27l-.01-.03V5.1c-.03.2.01.3 0 .1zm-6.71.07q-.04 1.82.07 3.63zm5.65.02c-.04 1.15.02.58 0 0m-5.52 0v.34c0 .68.06 1 .03.2 0-.13-.02-.55-.03-.54m1.04.01v.05zm1.02.05c-.09.38.14.05 0 0m4.68 0-.01.05c.02.12.01-.05 0-.05m-.91.02c.01 1.03.04.3 0 0m-4.78.03v.07zm4.18.06c-.05 0 .01.1-.01.12l.04 1.76q.02-.97-.02-1.88zm1.2.04v.1zm-7.08.02h-.01v.06c.1.15.04-.05 0-.06m1.03.04c-.05.25 0 .62 0 .91.02.66.03 2.53.09 2.56-.04-1.15 0-2.37-.1-3.47m6.38.03v.02c.01.56.04-.02 0-.02m-.12.03-.01.06zm-2.3 0-.01.2v.14zm.45.02v.56c-.03.62.11.98.04.13zm-2.65.01-.04.01c-.02.18.1 0 .04 0m-1.03 0-.02.16c0 .44.03-.16.02-.16m3.56 0-.02.05c.03.15.04-.05.02-.05m1.66.07v.04zm-4.2.01v.05zm0 .05-.01.01c0 .14 0 .05 0 0m-2.72-.01c0 1.06.05.33 0 0m7.26 0-.01.07zm-7.38.02-.01.25c.08.67.04-.24.01-.25m7.21 0-.02.06c.02.2.04-.05.02-.05m-1.81 0-.02.06c.04.26.04-.05.02-.06m1.66.02v.05zm-.9.01c-.02 0 0 1.59 0 .47zm-7.65.05c-.11.54.17.04 0 0m8.56.03v.09zm-5.24.05-.02.05c.04.14.05-.05.02-.05m5.35.01c.02.14.12.05 0 0m-4.32.05v.51c-.02.74.07 1.41.04.37a7 7 0 0 0-.04-.88m-.7.01v.16c-.01.59.05 2.68.05 1.06 0-.14-.02-1.22-.04-1.22m4.12.03v.08zm.61 0v.05zm-.13.02q0 .65 0 0m-.93.05v.07zm1.22 0v.3zm-5.24.06v.03c.09.06.01-.03 0-.03m-3.3.01c-.02 0 0 .13-.01.14.06 4.28.06 8.56.15 12.83q0-5.1-.07-10.2c-.05-.9.02-1.83-.05-2.73zm5.6 0q-.06 1.8.03 3.6c0-1.18.04-2.47-.03-3.6m-2.1.03q-.03-.01-.04.16c.06.68.06-.15.03-.16m4.93.02v.08zm.46 0-.01.08zm-.16.02-.01.01c0 .59.06-.02.01-.01m-1.8 0-.01.07zM11.39 6v.09c.02 1.55-.07 3.12.08 4.66-.05-1.58-.04-3.16-.08-4.75m8.47.01v.06zm-7.03 0v.1zm-.48.05v.06zm6.28 0v.05zm.35 0-.01.02c-.04.45.08 1.89.04.7-.03-.1.02-.7-.03-.71m-.2 0-.01.26c.06.67.04-.24.02-.25m.48.03v.05zm-5.24 0-.02.04c-.07.42.04.88.03.18zm-.86.05v.05zm4.22.01c-.04.28.04 2.27.05 1.2-.01-.37-.01-1.18-.05-1.2m-4.9.01c-.03.67.1.36 0 0m-.15.03v.05zm6.78.01-.02.04c.03.4.08-.04.02-.04m-1.39.01c0 .77.05 3.02.08 2.85-.02-.9-.02-2.31-.08-2.85m1.54 0-.02.16c0 .6.05-.16.02-.15m-.64.02-.01.07c0 .2.01-.07 0-.07m-5.44 0-.03.07c-.03.25.04-.07.03-.06m6.67.04v.1zm-.3 0v.11zm-6.25.01v.05zm.88.04v.1zm-1.82 0-.03.1c.03.38.05-.1.03-.1m3.74.02c-.03.72-.06 1.47 0 2.2 0-.73.05-1.53 0-2.2m-2.69.01-.08.26-.02.14c-.05.55.13-.39.1-.4m.92.04q.01 1.75.07 3.5c.01-1.16.01-2.38-.07-3.5m4.3.06c-.03.85.09 1.18 0 0m-6.95.04c0 .34.03 1.06.05 1.55 0-.62 0-1.41-.05-1.55m7.85 0c-.04.02-.03 1.06.02.27v-.22q0-.05-.02-.05m-1.04 0v.1c.1.28 0-.1 0-.1m-4.66.06v.1zm6.02 0v.05zm-6.68.02v.29zm6.1.03-.01.07c0 .2.01-.07 0-.07m-5.07.02-.02.01c-.1.41.06 0 .02-.01m-1.84.05c-.02.26.1 0 0 0m6.43.07v.74c0 .5.08 2.38.07.98-.05-.38.03-1.67-.07-1.72m-5.1 0c0 .99.09.35 0 0m1.03 0-.03.09c.04.24.06-.09.03-.08m4.56 0v.09zM14 6.8l-.03.14c.04.26.05-.13.03-.13m-1.53 0c-.02.2.1.05 0 0m5.42.02-.01.02v.27c0 .12 0 4.18.02 1.13v.03c.06.7.02-.03 0-.24V7.1c.01 0 .02-.3 0-.29m-2.52.05q-.04 0-.01.48c0 .67.1.63.05 0q0-.49-.04-.48m3.13 0-.02.02c-.01.4.07-.02.02-.02m-6.15.02v.05zm7.03.01V7zm-5.26.01c.02.1.04 0 0 0m-.32.01c-.06 1.01.07.19 0 0m-.64.01-.03.16c.01.6.05-.16.03-.16m1.52.04-.03.08c.03.17.05-.08.03-.08m4.56.02v.1zm.59.03v.06zm-6.53 0v.06c.02.12.01-.05 0-.05m-.5.01c-.04.29-.03.69-.02.89-.05.03.03 1.08.05.29v-.2l-.02-.05v-.6zm6.31 0v.07zM14 7.04l-.03.14c.03.47.06-.13.03-.14m-1.52.02c.02.92.03.38 0 0m1.65.02c0 .39.06.15 0 0m4.38.02v.07zm-5.2 0v.05c.02.13.01-.04 0-.04m4.71.04c0 .82.09 1.74.02 2.5-.04.87.11.56.06-.08-.03-.8 0-1.57-.08-2.42m1.1 0v.09zm-.97.01c-.06.02.03 1.22.05.33l-.01-.23zm1.69.02v.08zm-5.14.04-.02.01c-.02.12.08 0 .02 0m4.55.02v.1zm-5.9.03-.01.15.01-.03zm-.01.15v.02zm5.3-.13v.08zm-4.95.02-.01.04c.02.75 0 .12 0-.04m-10.5 0-.01.05c.02.13.01-.04 0-.05m10.97.03.01.92c.06.74-.04 1.54.06 2.26q0-1.59-.07-3.18m-.12.02-.03.08c-.03.29.04-.08.03-.08m-.2 0v.11zm-.64.01-.01.2c.04.62.03-.2.01-.2m5.8.01v.1zm.57.04-.01.08zm-4.32.05-.01.24c.07.68.03-.26 0-.24m.36 0-.03.15c.06.37.06-.14.03-.14m3.69 0v.09zm-4.55 0-.03.06c-.03.21.06-.05.03-.05m3.93.04v.06zm-4.63.05v.06zm-1.65.01-.02.03c0 .82.06-.02.02-.03m4.58 0-.02.03c0 .93.05.8.02-.03m2.93.01-.01.08zm-7.36 0-.01.09zm2.2.03-.02.15c.03.49.04-.14.02-.15m5 .02-.01.23v.04zm-.3.05v.04c.02.13.01-.04 0-.04m.16 0v.04zm-1.2.02v.05c.02.12.01-.05 0-.05m.65.02v.76c0 .24-.02 1.34.02.58.03-.34 0-1.35-.02-1.34m-1.57 0v.11zm1.73 0-.01.04c.02.13.01-.04 0-.05m-4.6.02-.03.21c.03.58.05-.2.03-.21m-.85.01v.9c0 .26 0 1.28.04.56-.03-.48.06-1-.04-1.46m.3.02-.02.1c.07.48.05-.1.02-.1m5.53.02v.05zm.34 0v.04zm-1.35.06v.1zm-4.66 0V8zm1.71 0v.58c0 .65.08 1.6.05.5a8 8 0 0 0-.05-1.08m-3.07.02v.05zm.86.03v.1zm5 .02v.07zm-2.97.04c-.07.73.18.2 0 0m-2.88 0-.02.12c0 .4.03-.1.02-.11m-.12.04v.06c-.07.9.08.6 0-.06m7.14 0v.07zm-4.83 0-.02.17c.02.44.03-.16.02-.17m4.46 0-.01.05c.02.12.01-.05 0-.05m-5.28 0-.02.2c.01.87.04 1.75.03-.05zm3.57.02q-.03-.02-.01.4v.26c.01.84.03-.8.04-.03.03-.3-.01-.63-.03-.63m2.44 0-.01.05c.02.13.01-.04 0-.05m-1.63.03c-.03.53.08.39 0 0m1.16.02v.07zm-4.16 0v.71c-.02.47.03 1.07.05.27-.03-.26.05-.93-.05-.97m-3.17.04c-.03.58.08.5 0 0m6.45.01c0 .35.1.1 0 0m-.14.03-.01.18c.05.46.04-.16.02-.17m.29.02v.09zm-1.07.01c-.02 0 0 .1-.01.12.04 1.5-.02 3 .04 4.5 0-1.54.03-3.08-.01-4.6zm1.92 0v.11zm-5.5 0-.01.07zm5.67 0v.09zm-7.14.07-.04.02c0 .16.07-.03.04-.02m.8.03c-.03.52.02 1.94.02.65 0-.18.02-.57-.03-.65m5.82.06v.07zm-.48 0v.06zm.72.02v.06zm-3.98 0c-.05.88.11.48 0 0m3.12.04v.48c.03 1.29.02-.5 0-.48m-5.35.02v.13zm3.74 0V9.8c0 .38.02 2.03.03.77-.03-.69.07-1.42-.03-2.1m2.77.02v.32zm-7.17.01-.01.39c-.02.73.03 1.6.02.47.01-.29 0-.87-.01-.86m.18.03c-.05.34 0 .85-.02 1.25.03.43-.06.9.05 1.3-.02-.84.02-1.72-.03-2.55m2 0v.07c0 .2.01-.06 0-.07m4.45.02v.1zm-3.07.01c-.04.53.07 2.4.04 1.05-.02-.18 0-1.03-.04-1.05m-4.37.02v.13c.04.96-.04 1.95.06 2.89-.03-1 .04-2.03-.06-3.02m.36 0-.01.05c.02.13.01-.04 0-.05m1.92.03v.1zm-.8.04c-.01.47-.06 1.57.02.66 0-.18-.03-.32-.02-.65m1.37.04-.01.13c.08 1.13.03-.1 0-.13m4.13.03v.1zm.58.02v.05zm-4.57 0c-.03.23.02.36.02.26l-.02-.2zm-2.31.03h-.01c-.02.25.1 0 0 0m.52.03-.02.11c.01.3.03-.1.02-.11m-.8 0-.03.18c.01-.07.02-.08.04.06zm1.91.09v.08zm4.24 0c.02.75.06.23 0 0m1.67.04v.08zm-1.22.03-.01.08zm-.74 0v.05zm-4.07 0-.04.17c.01.42.05-.16.04-.16m-1.45.01-.04.03c0 .2.08-.01.04-.02m3.02.02v.07zm3.83 0v.26zm-6.37.04-.03.07c.03.14.05-.07.03-.07m2.2 0-.02.03c.02.2-.05 1.27.04 1.4 0-.33 0-1.42-.03-1.42m4.82.05-.04.04c0 .3.1-.03.04-.04m-7.5 0q-.03 0-.04.03c.05.07.06-.02.03-.02m6.45 0v.3zm-3.41.1v.29zm3.96.01v.05zm-4.66.04-.01.32-.02.12c.07.9.04-.45.03-.44m4.99.02-.03.02c-.03.13.06-.02.03-.02m-1.47.01v.07zm-5.88 0v.1zm7.53 0-.01.27c-.06.62.05.79.03.15 0-.15 0-.41-.02-.41m-6.98 0-.04.05c0 .19.06-.05.04-.05m6.62.02c-.02 1.07.08.22 0 0m-1.75.01c-.02.83.08.64 0 0m-5.55.02-.03.01c0 .26.1 0 .03-.01m7.18.07-.01.22c.06.68.03-.22 0-.22m-5.54.01v.28c0 1.03.06-.26 0-.28m3.6.05s-.02.19 0 .47c.03 1.2.03-.6.04-.08q0-.4-.03-.39m-5.23.01-.01.04c-.02.48.02 1.78.03.6-.01-.08 0-.63-.02-.63m1.76.02q-.03 0-.02.06c.01.52.07.7.06.06.04-.03-.01-.12-.04-.12m1.24 0v.05c-.03 1.09.07.73 0-.05m-2.2.02v.09zm5.5.03v.06zm-2.92.01v.09l-.02.2c-.01.53.03 1.64.05 2.39q0-1.34-.03-2.68m.03 2.68V13c.03.16.02-.2 0-.72M12.9 9.72c-.06.32.03.26 0 0m5.52.07c0 .2-.07 1.8.02.92zm.27 0v.06zm-1.89 0c0 .21.11.02 0 0m-3.75.12v.06zm2.95 0-.02.1c.06.33.04-.1.02-.1m-2.82.02-.02.02c0 .33.08-.03.02-.02m-.29.02v.08zm5.96.02-.01.17c-.02.89-.07 1.84.03 2.69-.02-.9.01-1.92-.02-2.86m-2.04 0c-.06.4.04.16 0 0m-2.4 0-.01.23c-.02.85-.05 1.7 0 2.54.03-.84-.01-1.7.04-2.55zm-2.3.01c-.01.62.07.14 0 0m3.35 0-.02.15c-.03 1.73.03 3.48.04 5.21q.03-2.68-.02-5.35m3.7.01q-.02.65 0 .01zm-13.06.02-.01.06c-.06 2.99.17 5.99.1 8.98.14-3.01-.1-6.03-.09-9.04m8.5.02v.04zm3.68.05-.02.14c-.03.5.04 1.51.03.43zm-5.9 0c-.02.9.06-.01 0 0m.67.01-.02.04c-.01.38.06-.04.02-.03m2.94.02v.52l-.01 3.75c.03-1.42.08-2.88.01-4.27m-1.4 0v.11zm4.85 0v.07zm-2.93.02-.03.17v.02c.03.61.06-.18.03-.2m-2.96.01v.05zm.17.02-.01.07c0 .16.01-.06 0-.07m4.23 0v.42c0 .56.04 1.72.05 2.42q.01-1.42-.05-2.83m.05 2.83v.54zm-5.1-2.82c-.04.2-.04.62-.03.65v.02-.05l.02-.53v-.02zm5.8.02v.11zm-6.12 0h-.02c0 .2.08 0 .02 0m2.34.03v.25zm4.53 0v.08zm-6.25.02-.02.14c0 .57.04-.15.02-.14m4.9.04-.02.25c-.05.37.11 1.52.05.44 0-.08 0-.7-.02-.7m.91.02v.07zm-5.3 0v.08zm-.15 0v.04zm0 .03-.02.06c.01.79 0 .1.01-.06m.47-.03c-.03.67.08 2.42.04.84q.01-.42-.04-.84m2.8 0c-.04.11 0 .33-.02.47-.04.7.03 1.4.03 2.12.04-.85.03-1.77 0-2.59m2.31 0q-.02 0 0 .25 0 .44.03.34v.06-.4q0-.25-.03-.25m-4.55.02v.1zm1.57.02-.03.06c-.03.35.06-.06.03-.06m3.76.06-.03.03c-.02.17.06-.03.03-.03M13 10.5c-.08.91.14.07 0 0m-.9.04h-.02c-.01.27.09 0 .03 0m-.5.02-.02.24c-.04.6.04 1.17.03.31 0-.05 0-.55-.02-.55m.77.25c0 .26.02 1.4.01.46zm7.5-.21v.05zm-2.08 0-.01.27c-.04.66.04 1.96.02.65zm-1.69.04v.05zm-1.91 0-.02.18c.03.7.04-.18.02-.17m5.53.01v.11zm-5.15.02v.12c.08.3.02-.11 0-.12m-2.04 0c-.07 0-.03 1 0 .23zm-.46 0c-.08.57.1.53 0 0m1.63 0-.02.19c0 .92.04-.2.02-.18m-.55 0v.07zm3.31.01c-.1.67.1.22 0 0m3.4.03-.01.09c.03.36.04-.09.02-.09m-2.42 0-.04.1c0 .37.05 1.03.06.27 0-.05.01-.37-.02-.36m-6.03 0 .01 2.64c-.01.65.01 1.74.03 2.3-.01-1.64.07-3.3-.04-4.94m.04 4.94v.24zm7.07-4.93-.01.1-.01.25c.02.92.06.05.02-.35m-18.5.02v.06c-.02.08 0-.06 0-.06m15.07.01-.02.28c.03.81.03-.3.02-.28m-1.25.06c-.08.17.09.01 0 0m1.04 0v.1zm.34 0v.1zm3.44.01v.1zm.71.02v.03c.09.06.02-.03 0-.03m-6.37.04-.03.1c.05.33.06-.1.03-.1m.16 0-.02.1c.03.59.1 1.68.06.47a3 3 0 0 0-.04-.57m6.24.05v.06zm-7.19 0-.01.36c-.01.7.04.92.02.18zm2.53 0-.04.01c-.02.17.1 0 .04 0m-1.91 0c-.1.71.1.21 0 0m.67 0v.06l.01-.03zm-.01.06c0 .14 0 .06 0 0m5.47-.02v.07c0 .2.01-.07 0-.07m-2.85.03-.02.18v.1c.02.54.03 2.61.09 1.09 0-.14-.04-1.37-.07-1.37m-2.75.01-.01.01-.01.45c.02.99.1-.45.02-.46m6.19 0v.07zm-4.34.03v.1zm-.34.02-.01.06zm4.53 0v.06zm-.75 0v.11zm-4.07 0-.04.03c.06.07.07-.02.04-.03m-1.57.02v.06zm6.7 0v.05c.02.12.01-.05 0-.05m-8.46.02v1.05c-.02.5 0 2.36.03.94-.01-.66.06-1.33-.03-1.99m5.2.02-.02.2c0 .8.04-.21.03-.2m-2.94.03v.07zm1.05 0-.03.06c.05.16.06-.05.03-.05m2.54.02v.04zm0 .04h-.01v.2zm0 .2c-.02.25-.02.52 0 0m-5.04-.23-.02.23c.02.63.03-.22.02-.23m1.8.01v.06zm1.03 0v.09c.05.22.02-.09 0-.09m4.23 0c0 1.07.06.28 0 0m-.75 0-.01.18c.02.96.03-.18.01-.17m-4.7.02v.05c.02.12.01-.05 0-.05m5.89 0-.01.05c.02.12.01-.05 0-.05m-2.63.02v1.18c0 .5.04 1.79.04.56-.02-.58.05-1.16-.04-1.74m2.05 0v.06zm-5.96.01-.04.03c.06.06.07-.03.04-.03m6.84.04v.08zm-5.29.04-.01.08c.03.28.03-.07.01-.08m.18.03v.06zm-.56 0v.05zm-1.2.05v.08zm-.29.02-.01.07v.02a33 33 0 0 0 .05 2.83q0-1.46-.04-2.92m2.55 0-.03.04c.06.15.08-.03.04-.03m.54 0-.02.23v.06c.04.85.04-.29.02-.28m2.44.02v.1zm-5.38 0v.25zm1.01.01v.07zm1.01 0c-.05 0-.06.58 0 .15l.04-.08zm-1.17.02v.07zm-1.17 0v.1zm3.76.02-.01.09zm2.37 0v.09zm-.57 0c0 .4.07.03 0 0m-3.9 0v.1zm.91.04-.02.11c0 .71.05-.1.02-.11m4.2 0-.02.14c.02 1.17.05-.15.02-.14m-5.77.01-.01.08zm1.71 0c-.08.36.14.12 0 0m4.2.02v.06zm-4.86.02-.02.09c.04.36.05-.1.02-.1m1.9.01v.02c-.06.26-.02 1.27.02.55-.01-.09.02-.57-.02-.57m-4.89 0h-.01c-.01.67.1 0 .01 0m5.86.01v.08zm-1.17.03c-.07 0-.01 1.82.02.7v-.63zm-2.56.04v.07zm4.53 0v.07zm.3.03-.02.06c.01.16.02-.06.01-.06m.13 0v.06zm-.56.06v.05c-.01 1.23.01.02.02.16 0 .09 0-.2-.02-.21m-3.91 0v.07zm4.95 0v.1zm-1.68 0-.03.1c0 .23.05-.1.03-.1m-5.75 0v.05c.02.12.01-.05 0-.05m3.05.01q-.02 0-.03.03c-.02.42.07-.03.03-.03m.5.01-.04.11c.02.3.05-.1.03-.1m1.84.01.01.92c-.02.61.09 2.25.06.84-.04-.58.03-1.18-.07-1.75m1.44 0v.06zm-.3 0v.05c.02.12.01-.05 0-.05m-5.85.02v.13zm0 .13-.01.04zm2.22-.12-.04.03c0 .06.06-.03.04-.03m-2.88.02v.04c.08.28.06 0 0-.04m2 0v.1zm5.85 0c-.12.05.03.21 0 .04zm-1.16.02-.02.03c0 .7.03 1.31.03.31zm-6.34.02v.13zm-.47.02-.02.2c.05.65.04-.2.02-.2m6.65 0v.1zm1.2.03q-.02.65 0 0m-5.4 0-.01.08zm4.5 0v.05zm-5.5.02-.01.08zm.35 0c-.08.78.09.29 0 0m1.7 0v.1zm-.5.02v.32zm.32 0v.26zm-2 .04-.02.03c-.01.2.06-.02.03-.03m-1.15.04-.01.08zm3.01.02v.07zm3.91 0v.08zm-1.23 0 .01.3c.01.25.03 1.81.07 1.1 0-.4-.02-1.05-.08-1.4m-5.2.02c-.1.27 0 1.91 0 .43zm3 .03v.4l.01.05.02.38v.23q-.02.33-.01.68c.03 1.47.02-.13.01-.89.02.33-.02-.84-.02-.85m-1.2 0-.01.07zm4.95 0v.07zm.72 0v.08zm-6.5 0v.2c.08.75.02-.2 0-.2m3.43 0c-.01.5-.01 1.69.06 2.13-.03-.7 0-1.5-.06-2.13m-3.6.02-.01.06zm1.18 0c.02 1.01.05.34 0 0m3.59 0-.01.26c-.07.67.04 1.02.01.21zm-1.99.01-.02.17v.05c0 .62.04-.22.02-.22m4.06 0v.08zm-1.62 0v.63c.04 1.6.04-.61 0-.62m-6.19.01.02.85c0 .72.08 1.63.04.46-.01-.43.02-.87-.06-1.31m7.25 0v.06zm-.78 0-.03.04.03.16v.04c.04.16.03 0 .02-.06.01-.05.01-.17-.02-.17m.65.01v.07zm-5.45.03-.03.16c0 1.15.05-.17.03-.16m1.01.02c0 .33.07.05 0 0m-1.85 0v.32zm6.1.02v.25zm.88.03v.04zm-.7.02v.06zm-6.15.01c-.05.01.03 2.07.02.62zm-.48.01v.05zm6.76.01v.27zm-7.71.02c-.05.48.05 1.34.03.46-.06-.04.06-.43-.03-.46m1.78.02-.01.08zm-.98.03v.04zm7.32 0v.12c.07.34 0-.1 0-.11m-5.64 0v.35c-.02 1 .03-.02 0-.35m-.16.03-.02.07c-.04.23 0 .45 0 .89 0-.15.05-.96.02-.96m-1.35.04-.01.29zm5.99.01-.01.05c.02.13.01-.04 0-.05m-13.29.03v.03c0 .62.02 2.65.05 1 .06-.23-.03-.68-.05-1.03m9.52 0-.02.16c.04.55.04-.14.02-.15m-3.02 0-.03.1c.03.38.05-.1.03-.1m6.93.01v.07zm.5.02v.3zm-1.06.02v.1c.02.32.01-.1 0-.1m1.79.01-.01.08zm-2.58.02v.05c-.03.54.07 1.9.04.65 0-.05-.02-.69-.04-.7m-1.5.05-.03.2c0 .67.01-.2.02-.2zm0 0v.12zm-2.25 0v.09zm-.66.03-.01.06zm.35 0v.06zm5.6 0c-.02.52.07.22 0 0m-6.93.01-.04.17c.03.5.07-.16.04-.16m.48 0v.05zm.98.02q0 .64 0 0m1.55.18c-.04-.33-.06 1.29 0 .25zm1.54-.14-.01.02.01 3.62c.1-1.21 0-2.43 0-3.64m-1.89.04v.05zm-.85 0v.1zm-1.97 0c-.05.02 0 .32-.01.42.03 1.04 0 2.15.08 3.16a69 69 0 0 0-.07-3.57m1.14.01v.05zm.33.03-.01.06zm3.6 0-.01.05c.02.12.01-.05 0-.05m2.94.02v.06zm-9.62 0-.03.15c.02.35.04-.14.03-.14m.98 0c-.05.53.06 1.59.03.44-.02-.1 0-.45-.03-.44m8.37.01v.08zm-.3.03v.1zm-4.4.02-.02.08c0 .2.02-.07.01-.08m-.19 0v.11zm5.33 0-.01.08zm-7 .02v.05zm3.27.01-.03.08c.01.21.04-.08.03-.08m1.98 0v.1zm-1.85.02c-.06.3.02.45 0 .07zm-2.73.04v.06zm5.75.05v.06zm-2.5 0v.32zm2.19.01v.04zm0 .04-.02.08c.03.67.02.07.02-.08m.61-.03-.03.02c-.04.07.06-.03.03-.02m-6.2 0-.01.06zm-1.48.02-.02.27c.05.88.04-.26.02-.27m3.16.01v.08zm-2.7 0v.05c.02.12.01-.05 0-.05m3.76 0v.04l.02.05q-.01-.09-.02-.08m0 .03c-.04.1 0 1.03 0 .36zm2.43-.02-.01.07c0 .2.01-.06 0-.07m-2.91 0-.03.09c0 .4.05-.1.03-.08m-2.73 0v.11zm4.71 0v.07zm1.84 0v.07zm-5.91 0v.05zm1.17 0v.62zm-2.46 0-.02.06c.03.15.04-.05.02-.05m2.11 0v.33zm4.8.02-.04.04c-.04.65.08-.03.03-.04m-9.07 0v.1l-.01.23a43 43 0 0 0 .04 3.69v.06l-.01.04c.06.32.07-.12.01-.05v-.04c.03.08.01-.11 0-.12v-.18q0-1.86-.03-3.73m3.97.01v.03zm0 .03c-.04.02 0 .3-.01.36.03.66 0-.21 0-.36m5.84-.03-.01.08zm-6.68.03v.06zm1.02 0-.01.07c0 .2.01-.07 0-.07m3.55 0-.01.08zm.65 0v.06c.07.15.01-.06 0-.06m-5.02 0-.03.06c.05.15.06-.05.03-.05m6.34.01v.1zm-1.58.01-.02.09c-.05.78.03-.1.02-.09m-1.85.04v.06zm-2.6.02-.02.08c.05.18.03-.07.02-.08m-1.42.02h-.02c0 .21.08 0 .02 0m7.62.01-.01.07c0 .2.01-.06 0-.07m-4.79 0v.1zm3.46.02v.06zm-.13 0v.09zm-.8.02v.06zm-3.4 0v.1zm4.02.03c-.09.29.13.04 0 0m-2.61.02v.2c.03.54.02-.21 0-.2m.15 0v.05zm3.95.01v.1zm-7.48.04-.01.06c.04.23.03-.07.01-.06m5.51.01-.02.26c0 1.02.04-.27.02-.26m.8 0-.01.1zm.14.03v.07zm-5.3 0v.06zm6.17 0v.05zm-4.46 0-.02.18c-.03.57.04 1.25.03.37zm-2.2 0q0 .64 0 0m4.06 0-.01.07zm-1.16 0-.01.07c0 .2.01-.07 0-.07m3.2 0-.01.05c.02.12.01-.05 0-.05m-6.57.02v.06zm5.54.04-.02.04c-.05.45.05 1.2.03.39-.03.07.02-.42-.01-.43m1.94.01v.06zm-1.45 0-.02.03c-.03.58-.03 1.95.01.62-.01-.09.05-.65 0-.65m-6.18 0v.05zm.32 0v.09zm1.01.05v.05zm5.86 0v.05zm-8.18 0c-.03.53.04 1.9.03.63-.02-.11.05-.63-.02-.63m1.8.01-.01.07zm4.42 0v.08zm-4.25.02-.01.07zm3.75 0v.05zm2.06.01-.02.13c.01.8.04-.11.02-.13m.28.01v.08zm-1.67 0-.01.25c-.07.58.05 1.13.02.28.01-.13 0-.52-.01-.52m-3.75.01-.01.18c.05.57.03-.17.01-.18m1.04 0-.02.07c-.06.55.03.96.02.06zm.89.01-.03.15c0 .59.05-.15.03-.15m2.75 0v.05zm-6.17 0 .01.09v.09l.02-.03v-.05c.01-.01.03-.1-.03-.1m.01.18c0 .33 0 .15 0 0m-.14-.16v.1zm-.32.02-.03.02c-.01.21.08-.02.03-.02m6.18 0q-.02 0-.02.05c-.03 1.04.07-.05.02-.04m-1.15 0-.01.07c0 .2.01-.07 0-.07m2.49 0-.02.04c.04.15.04-.05.02-.04m-6.88 0v.1zm.81.01c0 .33.03 1.9.03.8-.01-.22.03-.76-.03-.8m1.01 0c0 1.04.06.55 0 0m1.27.01v.05zm2.58 0v.1zm-4.01.03-.01.07c0 .2.01-.07 0-.07m2.09 0q-.02-.01-.02.28c.05.93.04-.26.02-.27m3.58 0v.07zm-3.72.05-.04.1c0 .27.05-.1.03-.1m-.53.03v.04zm1.33 0v.04zm-5.34 0v.11zm5.72 0-.02.23v.16c.03 1.08.04-.38.02-.38m-3.27 0-.01.07c0 .2.01-.07 0-.07m2.74.02v1.56c.03.4-.05 1 .05 1.3q0-1.3-.05-2.6zm-4.86 0-.02.08c-.01.86.05-.07.02-.08m.98 0-.01.05c.02.13.01-.04 0-.05m-1.8.04-.01.3zm1.14 0v.07zm6.44 0v.06zm-8.28.02c-.04 1.66.01 3.31.05 4.96.07-1.23-.04-2.51-.03-3.76zm7.83 0v.09zm-5.16 0v.1zm2.55.02v.06zm-3.06 0v.1zm6.87.01v.04c.05.62.03-.04 0-.04m-10.28.03c-.02 0-.05.24-.03.52-.03.66.08.53.05-.06q0-.48-.02-.46m6.63 0v.08zm3.1.02-.01.28v.01zm-6.15.01V15zm-.6 0-.01.21v.13zm4.02 0-.01.05c.02.13.01-.04 0-.04m-.18.01v.06zm-4.33 0-.01.13c.03.57.02-.1 0-.12m6.63.03v.08zm1.49 0v.06zm-2.26 0v.1zm2.13 0-.02.02c0 .24.07 0 .02-.01m-2.63 0-.01.07zm-3.24 0v.08zm2.23.03v.04zm3.35 0v.04zm-1.19 0-.02.1c-.03.31.03-.09.02-.1m-.97.02.01.41c-.05.6.17.59-.01-.4m-4.88 0-.02.05c.05.16.05-.05.02-.05m.95.03v.1zm2.92.02c-.02.52-.04 1.43.01.4v-.26zm-10.85.01-.03.12v.3c.03 1.2.07-.41.03-.42m7.13.02v.1zm-8.3 0c-.05.18.01.55 0 .8.04 1.46.01 2.92.09 4.37-.02-1.71.01-3.48-.08-5.17m-4.1 0-.02.08c0 .2.02-.07.01-.07m16.63.02c-.03.43.11.14 0 0m-2.93 0v.06zm4.53 0-.01.07c0 .2.01-.06 0-.07m-3.51 0v.08zm-2.44.05-.01.07c0 .2.01-.07 0-.07m2.98 0v.05zm-2.18.01v.11zm2.87 0v.06c-.1.33.04.64 0-.06m-1.04.01c-.06.15 0 .44-.01.63.04.78-.03 1.6.07 2.35-.03-.98 0-2.03-.06-2.98m.73.01q-.02.64 0 0m-3.04 0v.12zm4.88 0v.32zm-4.56.01-.01.33c-.02.19-.02 2.1.03 1.2 0-.25 0-1.52-.02-1.53m3.4.02-.03.21V15c0 1.15.06-.43.03-.43m-4.38 0c-.03 0-.01.66 0 .13l.02-.03zm5.04 0-.02.05c.05.16.04-.05.02-.04m.97 0v.09zm.16 0-.04.04c.05.12.06-.03.04-.04m-3.7.02v.34zm4.6.02q0 .64 0 0m-19 0v.05c.02.13.01-.04 0-.04m14.06 0v.33zm0 .21c-.04-.25-.08.78 0 .06zm.5-.21v.1zm3.68 0v.12zm.93.03v.08zm-4.44 0v.11zm5.16.06v.1zm-1.33 0v.07zm.9 0v.06zm-4.21.01v.2l-.01-.02.01.15c.02.02.04-.06 0-.12zm-3.01 0 .02.05c.08.09-.02-.05-.02-.04m1.63 0v.05zm5.17 0v.1zm-3.25.02v.06zm-2.2 0-.01.08zm3.4.02q0 .64 0 0m-1.35 0v.08zm-1.38.01-.01.1v.26c.01.86.06.07.01-.36m2.42.03q-.02.64 0 0m1.89.01v.08zm-.32 0-.01.05c.02.12.01-.05 0-.05m-7.63 0-.03.09c.04.9.07-.07.03-.08m3.95.02c0 .28.08.08 0 0m1.24.02v.05zm1.83 0v.4l.01.06v.05c-.03.78.08.98.03.19zM.25 14.9v.06zm11.61 0-.01.08zm5.4.02-.01.2c.04.6.04-.21.02-.2m-3.44 0v.11zm5.46 0V15zm.56.02V15zm-3.67 0v.1zm-3.8 0-.02.05c-.06.58.04-.05.02-.05m6.75.02v.34c-.02 1.01.03-.01 0-.34m-3.09 0v.08zm-4.5.02-.01.03c-.02.57.08 1.48.05.4-.02.1-.01-.44-.04-.43m6.95.01v.08zm-2.61.02v.06zm-.53 0v.07zm4.36 0-.03.05c.04.12.05-.04.03-.04m-1.06.02-.01.02c.06.15.04-.03.01-.02m-9.45.02-.01.07v.01q-.01 2.28.02 4.55h.07q0-1.38-.06-2.76zm4.45 0-.01.07c0 .2.01-.06 0-.07m-1.79.04c-.1.4.11.14 0 0m.8 0v.27c-.05.66.08 1.57.04.47zm.18 0v.05zm6.87 0v.05zm-.42.04v.1zm-7.1 0c0 .65.1.2 0 0m3.69.01v.05zm4.12 0v.05zm-10.61.02c-.04 0 .01.35 0 .4q-.04 1.5.05 2.98c.07-1.1-.04-2.22-.01-3.32zm7.5 0v.06zm.82.03v.05zm.95.01c-.06.67.1.66 0 0m.28.01v.06zm-4.97 0-.01.09zm2.24.01-.04.03c0 .06.06-.03.04-.03m-2.37.02v.1zm2.05.02v.07zm-.53.03-.01.04c.02.13.01-.04 0-.04m4.8 0v.04zm-1.8 0-.01.1zm-1.97.02-.02.01c.02.4.06-.01.02-.01m2.45 0v.06zm-1.1 0v.08zm-6.85.01c-.05.43.07 1.47.04.48-.02-.11.02-.44-.04-.48m6.57 0-.03.07c0 .57.07-.06.03-.06m.77 0-.01.08zm-5.85 0v.1zm2.64.02v.1zm-1.33 0-.01.07zm4.85 0v.06zm1.52 0v.06zm-13 .02v.05c.02.13.01-.04 0-.05m9.03 0v.05zm-10.54.02v.32zm7.03 0v.31zm2.82 0v.1zm-3.98 0c-.03.95.12.73 0 0m.48 0c-.05 1.2.1.73 0 0m4.37 0-.04.02c0 .2.07-.02.04-.02m1.37.02v.25l-.01.04zm1.71.03v.08zm-3.4.01c-.04.02-.03 1.07 0 .3l.02-.23q0-.07-.02-.07m4.12 0v.07zm-9.5 0-.02.01c-.05.61.07 2.2.04.74-.01-.14.02-.74-.03-.75m7.7 0v.08zm-1.65.01v.11zm-9.54 0v.29zm9.2.03-.01.06zm-2.24 0v.05zm.32 0v.05zm1.76 0v.05zm1.66 0c-.01.54.08.18 0 0m1.85.02c0 .41 0 .44 0 0m-6.57 0V16zm-.64.02v.06zm7.38 0-.01.08zm-7.5 0v.05zm6.12 0v.05zm-1.44 0v.1zm2.04.04c-.04.44.02.44 0 0m-5.29 0v.06zm-.8.01v.1zm6.58 0v.08zm-4.43.02c-.02.61.03 2.06.03.7-.01-.18 0-.66-.03-.7m3.34 0v.05zm-1.97 0v.47c.03.21.02 2.2.1 1.44-.02-.57-.05-1.9-.1-1.9m1.7 0v.08zm.14 0v.1zm-4.37.02v.09zm1.52 0-.01.05c.02.13.01-.04 0-.04m4.51 0-.04.03c-.01.31.09-.02.04-.03m-6.5 0v.11zm-1.14 0v.07zm5.21 0-.03.22c.02.61.05-.23.03-.22m-.18 0c-.05 0 .02.18-.01.03l.02-.02m-1.05 0v.27zm.35 0c-.03 0-.01.64 0 .12l.02-.02zm2.4.02-.01.09zm-2.05.04.01 1.67c0 .54.03 2.48.03.96-.03-.87.06-1.77-.04-2.63m-2.39 0-.03.04c-.01.24.07-.02.03-.03m-.86 0v.05zm5.48.01c-.02 0 0 1.62 0 .49zm-4.45 0-.03.1c.03.38.05-.1.03-.1m3.99.01c.02.61.05 0 0 0m-2.98.01c0 1.23.06.2 0 0m-3.97 0v.09c.07.2.02-.09 0-.09m7.71 0v.08zm-6.44 0-.01.05c.02.12.01-.05 0-.05m2.37 0v.05zm-8.31 0-.02.06c.03.15.04-.05.02-.05m11.03.01v.06zm-.82 0v.1zm1.25.02v.31zm-6.28 0-.01.07c0 .2.01-.07 0-.07m1.9.01c.02.49.06.16 0 0m-.27.01v.06zm-8.33 0v.07zm9.32 0-.01.07c0 .2.01-.06 0-.07m2.9.01v.1c-.05.4.02 2.3.01 1 0-.2.02-1.08 0-1.1m1.22.02v.08zm-.62 0v.05c.02.12.01-.05 0-.05m-5.34 0v.1zm-.13.02-.01.05c.03.25.03-.05.01-.05m-.5.03-.02.1c.04.33.06-.1.03-.1m3.14 0v.04zm-3.93.02-.01.04c-.06.45.02 1.41.02.46zm-4.55 0c-.05.02 0 .26-.02.34.06.65.02-.29.02-.34m7.64.04-.02.05c.04.4.07-.05.02-.05m.68 0c-.01 0-.03.47-.01.35.06 1.15 0-.5.02-.21zm-2 0-.02.14c.05.47.04-.13.02-.14m-1.14.02v.07zm2.1 0-.04.05c.05.12.06-.04.03-.04m-8.8 0v.11zm7.37.03v.06zm5.33 0-.01.06zm-4.36 0v.07zm-2.43.02c-.03.32.09 0 0 0m1.14 0v.26zm1.78.02v.06zm4.37 0v.41c.06 1.16 0-.42 0-.41m-.35 0v.05zm-.4 0-.03.2c.01.69.05-.18.03-.2M0 16.59v.04zm13.87 0v.19c0 .73.05.93.03.15 0-.13-.03-.34-.03-.34m3.1.01v.3zm-4.25 0v.08zm-.93 0v.1zm6.9 0-.02.13c.03.42.05-.12.03-.13m-1.4.01v.34zm-5.7.01v.07c0 .2.01-.06 0-.07m-5.24 0v1.72c.03.55-.04 1.14.03 1.67h.01c0-1.13.06-2.28-.04-3.39m8.07.03v.06zm3.38 0v.06zm1.78 0v.07zm-8.82.01c0 .44.03 1.3.05 1.95 0-.78-.01-1.66-.05-1.95m.05 1.95v.84c.02.19.01-.25 0-.84m1.3-1.95q-.02 0-.02.03c0 .79.03 1.17.02.17-.03.14.02-.2 0-.2m-6.86 0v.24-.1l.01-.05zm0 .24v.14c.03.72 0 .2 0-.14m5.36-.23c-.11.56.11.21 0 0m3.49.02-.04 2.77v.03l-.01.52v-.27.02c.02.5.02-.31.01-.15v-.21zm4.43 0v.06zm-4.5 0v.08zm1.58 0v.34zm-2.06 0v.05zm2.24 0-.02.01c-.03.39.09-.02.02-.01m.14 0v.09zm-10.2.01c-.04.48-.01 1.03-.02 1.53l.02 1.78h.04q0-1.67-.05-3.3m-1.35.03-.01.32c.03.92.03-.34.01-.32m11.93 0v.09zm-5.15.06-.03.06c-.01.35.06-.06.03-.06m8.29.04-.01.05c.02.12.01-.05 0-.05m-1.5 0-.01.1zm.14.01v.11zm-6.45.03v.06zm7.4 0v.07c0 .2.01-.07 0-.07m-6.44 0v.05zm-.78 0-.03.07c.05.19.06-.06.03-.07m2.25.02-.01.16zm-.8 0v.06zm4.56.03V17zm-2.37 0V17zm-3.97 0v.05zm5.52 0v.1zm1.71.01c-.08.27.1.53 0 0m-3.44.01v.24l-.01.05c0 .2.01-.07 0-.07zM12.6 17l-.01.07c0 .2.01-.07 0-.07m.81 0v.04c.07.09.02-.04 0-.04m-2.77 0-.02.18c-.04.64.04 1.52.04.43.02-.06 0-.6-.02-.6m5.32 0v.1zm-7.32.03v.31zm7.7 0-.01.05zm.83 0v.06zm-5.51 0-.01.05c.02.13.01-.04 0-.04m6.6 0v.04c.02.13.01-.04 0-.04m.83 0v.1zm-2.6 0v.11zm1.2 0-.02.09c0 .22.04-.08.03-.09m2.25.03-.01.06zm-7.64 0v.05zm.48 0v.04zm-.8 0v.11zm-.8.03-.03.08c.06.43.06-.08.03-.08m.49 0v.07zm2.6 0v.05zm-1.14 0v.1zm1.3 0v.1zm-7.62.01c-.03.11 0 .3 0 .43l.02 2.44h.03q.03-1.46-.05-2.87m12.41.02v.05zm-13.25.01-.02.3v.22c-.04.46.08 1.6.04.56a9 9 0 0 0-.02-1.08m7.46 0c-.02 0 0 .72 0 .18l.02-.03zm-1.1 0v.05zm.45 0v.05zm.48 0v.04c.09.05.02-.04 0-.03m3.92.01v.06zm-.83 0v.09zm3.28 0c-.07.66.02 1.63 0 .23zm-7 .01v.07zm-.78 0-.02.18c0 .45.04-.16.02-.17m7.25 0v.1zm-2.08 0c-.02.01 0 1.6 0 .47zm-.17 0-.03.06c.01.17.04-.06.03-.06m2.05 0v.05c.1.2.04-.03 0-.04m-3 .01c-.08 0 .05.99.08.2l-.02-.04q-.04-.15-.07-.16m2.38 0v.07zm-5.48 0v.07zm-.46 0v.05zm6.42 0v.05zm-4.47.02v.06zm-2.78.02c-.03 0-.02 1.19 0 .41v-.26l.02-.07q0-.08-.02-.08m.5 0-.01.08zm5.7 0-.01.05zm-1.2.02v.08zm-4.8 0-.01.1zm7.56.02v.08zm-2.05 0v.05zm-5.85.02q-.02-.02-.02.34v1.29q-.02-.02-.02.06l.02.08v-.1l.04-1.12c.03-.12 0-.55-.02-.55m3.11 0v.1zm4.49.01c-.05.62-.02.97.01.15zm-6.47 0v.01zm-5.84.02-.02.28c.01.72.04-.27.02-.28m6.33 0v.11zm-2.64 0c-.02.02 0 1.56 0 .46zm7.67 0v.07zm-2.82.06-.04.02c0 .07.06-.03.04-.02m-.57 0v.26-.25zm-1.96.01v.1zm3.03 0v.05zm1.52 0-.01.05c.02.13.01-.04 0-.05m2.06 0-.01.05c.02.13.01-.04 0-.05m-2.87 0v.1zm-6.74.01c-.13.04-.02.35-.06.48q.03 1 .02 2h.04q-.02-1.25 0-2.48m6.88 0v.11zm-12.07 0 .01 1c.02.27 0 .91 0 1.47h.02q.04-1.24-.03-2.47m11.4 0v.09zm-1.54 0v.11zm-1 0v.27c.01.22.02-.25.01-.05zm4.83.03c-.02-.02 0 1.55 0 .44zm-.13 0-.01.06zm-5.19 0v.05zm1.66.02-.01.07c0 .2.01-.07 0-.07m-2.1 0v.34zm6.15.02v.06zm-6.83 0c-.03 1.18.1.45 0 0m.32.03c-.04 1.1.07.56 0 0m-1.8 0c-.07 0 0 .16-.02.2L10.06 20h.04q.05-1.16.07-2.32zm7.14 0v.69c-.02.15.01.28.03.5 0-.4.04-.8-.03-1.2m-4.84.02v.07zm1.12 0-.01.07c0 .2.01-.07 0-.07m-1.75.02v.06zm-3.17 0v.25c-.02.03 0 .6 0 .63l-.02 1.42h.05zm7.16 0v.09zm1.04 0-.01.04c.02.13.01-.04 0-.04m-4.68 0-.02.24V18c.05.8.04-.26.02-.27m3.52 0-.04.03c-.01.32.09-.02.04-.03m1.48 0-.03.03c.05.07.06-.02.03-.03m-11.83.02c-.04.16 0 .33-.03.49q-.04.89-.01 1.78h.06q-.04-1.14-.02-2.27m10.4.03s0 .15-.05.6l-.02.05c-.04.87.09-.65.08-.65m-.78 0v.11zm3.65 0-.01.07zm-2.12.01c-.02 0 0 .35 0 .4 0 .68 0-.27.02-.34zm1.19.01v.05zm-3.4 0v.1zm-3.12.02v.07zm4 0-.01.08zm2.04.02-.03.03c-.07.12.04-.03.03-.03m.79 0-.01.07c0 .2.01-.07 0-.07m1.98 0v.07zm-4.66 0v.1zm-3.46.02v.06zm7.27.02q-.02.46 0 .26v-.25zm-6.64.04v.04c.02.13.01-.04 0-.04m3.36 0v.04zm2.02 0v.04zm.77.02v.05zm-3.67.01c-.06 0-.06.83.02.21l.01-.16zm2.6.02-.05.02c0 .2.09-.02.04-.02m.77.02-.01.06zm-.31 0-.02.09.02 1.02.01-.82zm-6.82 0v.1zm1.46.04v.05zm2.85 0v.05zm2.06.04-.01.08zm-4.07 0v.09zm1.84 0v.08zm-2.32 0v.04zm6.28 0v.04zm-7.42 0v.09zm4.01.06-.03.03c.06.15.08-.03.04-.03m1.84 0v.11zm-3.41 0-.01.06c.02.12.01-.05 0-.05m2.57 0c.02.74.06.29 0 0m-2.25.02v.05c.02.13.01-.04 0-.05m3.7 0v.05zm1.66 0-.01.05c.02.13.01-.04 0-.05m-13.32 0-.02.16c0 1.43.05-.16.02-.15m9.43 0-.03.02v.31c.01-.13.05-.33.03-.33m-.04.33q-.02.13 0 .12zm0 .12c0 .46 0 .83.04-.06zm-1.89-.44v.07zm-3.46.03v.07zm5.54 0-.01.08zm-.71 0v.1zm2.82.05v.07zm-13.44 0v.08zm8.43 0v.05zm2.56 0-.01.05c.02.12.01-.05 0-.05m-2.7.03-.01.04zm1.47 0-.01.04c.02.13.01-.04 0-.04m1.76.01q0 .65 0 0m2.4 0v.12zm-6.28 0v.05zm-.49 0-.03.04c.05.12.06-.03.03-.04m2.8.01-.02.03c-.03.14.04-.03.02-.03m-3.61 0v.1zm8.22 0v.1zm-7.56 0-.01.13c0 .4.02-.13.01-.13m5.2.01-.01.23v.03zm-4.39.03v.08zm1.49.02v.05zm3.57 0v.1zm-4.23.02-.01.08zm1.15 0v.08zm-3.94 0v.1zm5.18.02c-.03.3.08.12 0 0m3.06 0c0 1.3.05.5 0 0m-3.42.01v.1zm-5.18 0V20h.03q.04-.77-.03-1.53m1.88 0-.02.26c-.01.61.04 1.2.03.29zm-.5.02v.34c-.02 1 .02-.01 0-.34m2.57 0v.05zm-6.81.02-.01.29c-.03.73.08 1.43.03.36zm5.03 0v.06zm-1.32 0c-.05.02-.03 1.17 0 .35l.02-.27zm-6.3.01v.06zm11.34.03v.05zm-1.25.02v.1l-.01.44c0 .64.03 1.02.03.25a6 6 0 0 0-.02-.79m3.2 0-.01.05c.02.12.01-.05 0-.05m-6.18 0q-.02.51.01.37V19v-.37zm-2.01 0-.02.02c0 .73.07 0 .02-.01m4.66.02v.08zm.59.02-.01.07c0 .2.01-.07 0-.07m2.5 0v.05zm-6.38.02-.01.05c.02.13.01-.04 0-.04m-.63.02v.05zm2.13 0v.05zm.51.05-.01.07c0 .2.01-.07 0-.07m-.82 0v.08zm1.94 0v.08zm.9 0v.05c.02.12.01-.05 0-.05m1.2 0-.01.08c0 .8.05-.07.02-.07m-4.7 0-.03.02c.06.07.07-.02.04-.02m7.24 0v.07zm-5.12.02-.03.07c-.01.25.04-.06.03-.07m-3.29 0v.06zm2.13 0v.06zm5.83 0v.08zm.77 0v.08zm-8.09 0v.05zm1.68.01q-.02.65 0 0m-4.71 0-.01.31v.9h.02zm5.19 0v.1zm1.14 0v.05zm-5.19.02v.07zm4.18 0v.05zm3.94 0v.09zm-11.53.02-.01.02c-.02.67.05 1.15.03.17-.03.13.01-.2-.02-.2m9.48.04c-.02.41 0 .44 0 0m-4.18 0v.07zm7.77 0V19zm-1.24 0-.02.04c.03.1.04-.04.02-.04m-8.57.01-.03.07c-.04.24.05-.07.03-.07m-4.18.02-.02.07c.02.2.04-.06.02-.06m7.4 0-.02.07c0 .2.02-.07.01-.07m2.69 0-.01.05c.02.13.01-.04 0-.05m.69.02-.01.01c.01.18.08 0 .01 0m-5.16 0-.03.2v.01c.04.61.06-.2.03-.2m5.65 0v.07zm-.13 0v.08zm-1.04.05-.01.05c.02.12.01-.05 0-.05m4.24 0v.05zm-1.57.02v.07zm-8.4 0q-.01-.01-.03.29c-.02.08-.02.39-.02.67h.05zm2.92 0-.01.05c.02.13.01-.04 0-.05M6.73 19v.35c-.02 1 .03-.02 0-.35m7.98 0v.07zm-1.01 0v.05zm-2.07 0-.02.15c-.02.16-.01.49 0 .78h.02zm5.52 0-.01.3c.04.88.03-.31.01-.3m-7.8 0-.03.03c.06.07.07-.02.04-.02m1.75.03v.3l-.03.09c0 .17.04-.04.03-.08zm-5.9 0v.06zm8.06 0v.05zm6.52 0v.04zm-2.15.04v.2l-.01.02v.08l-.03.04c.05.12.06-.02.04-.04zm-3.94 0v.05zm.32 0-.01.04c.02.13.01-.04 0-.04m1.26 0-.02.41c0 .91.1-.3.02-.41m-1.86 0v.11zm-7.11 0v.82zm7.56 0v.07zm1.57 0v.06zm4.2 0v.1zm-14.62 0c.01 1.17.07.16 0 0m7.73.02c-.01.41 0 .44 0 0m1.79 0 .01.27v.05c.02.12.02.1.02.04q.04.06-.03-.34zm-2.61 0v.09zm1.65 0v.09zm5.45 0v.05zm-9.67.02-.03.22v.55h.03zm6.24 0v.1zm3.01 0v.1zm-3.89 0v.06zm2.59 0v.1zm-.67.02-.01.05c.02.13.01-.04 0-.05m.35 0v.05c.12.55.03-.05 0-.04m1.76 0v.09zm-2.8.02v.1zm-4.5 0c0 .99.04.32 0 0m1.02 0q0 .65 0 0m3.67 0v.08zm-2.1.03v.05zm5.32 0v.05zm-17.6 0-.06.69h.08q0-.35-.03-.68m14.74.01v.06zm-2.6.03-.01.06zm3.94.05v.1zm-13.71 0-.03.17v.04c.04.71.07-.18.03-.2m7.2 0-.01.1zm7.32.02v.09zm-5.03.02v.06zm.14.02-.01.08zm-2.92 0v.52h.02q0-.26-.02-.51m3.08.04v.05zm-5.87 0-.01.27v.2h.03zm11.65.02q0 .65 0 0m-2.82 0v.09zm1.63.01-.03.04c0 .3.06-.03.03-.04m-2.5 0v.11zm1.35 0v.07zm-.82 0-.01.07c0 .2.01-.07 0-.07m-6.42.01v.4h.07q0-.05-.05-.03l-.02-.33zm6.96 0v.41zm-6.39 0v.4h.01zm8.53 0v.05zm-6.86.05v.35zm5.83 0-.01.05c.02.12.01-.05 0-.05m-1.8 0c-.01.32.1.05 0 0m-5.2.02-.01.02.02.16-.01.04v-.04c.02.05.04-.18 0-.18m3.44 0v.08zm-1.3.03v.06zm6.07 0v.06zm-8.04 0v.3zm3.62 0-.01.05c.02.12.01-.05 0-.05m.89.02V20zm.34 0v.09zm3.35.03v.05zm-2.84.01v.09zm0 .06c-.02-.07-.02.03-.02.17h.02zm.2-.05-.03.01c-.01.21.06 0 .02-.01m-4.37 0v.07zm6.44 0v.07zm-2.42 0V20zm3.17 0V20zm-7.56.02v.07zm.85 0v.07zM6 19.82V20zm12.45 0v.07zm-2.23.02v.06zm-8.76 0v.08zm4.2 0V20c.01-.03.01-.14 0-.14m7.54 0V20zm-7.88.01V20zm-7.1 0V20zm6.63 0V20zm7.45 0V20h.01zm-5.02.02v.1zm4.4 0-.01.07V20zm-12.15.02q-.03.01-.03.08h.04zm10.48 0V20zm-.2 0v.08h.01zm.88 0v.08zm-11.77.02-.01.02V20h.03q0-.06-.02-.06m-1.51 0V20zm15.95 0V20zm-15.4 0-.02.04h.03zm14.8.02V20zm-4.65 0v.03zm.66.02"
          opacity=".21"/>
</svg>
