<svg xmlns="http://www.w3.org/2000/svg" width="1" height="1.0827" viewBox="0 0 1 1.0827">
    <defs>
        <radialGradient href="#wa" id="wg" cx=".4751" cy=".4751" r=".4639" fx=".5976" fy=".5686"
                        gradientUnits="userSpaceOnUse"/>
        <radialGradient href="#wb" id="we" cx="1.5577" cy="3.3572" r=".4639" fx="1.5577" fy="3.3572"
                        gradientTransform="rotate(59 6.0434 2.0634)scale(1.3 1.74)" gradientUnits="userSpaceOnUse"/>
        <radialGradient href="#wc" id="wd" cx=".2017" cy=".8599" r=".4710" fx=".2017" fy=".8599"
                        gradientTransform="matrix(.01 1.34 -1.27 .01 1.7048 .2958)" gradientUnits="userSpaceOnUse"/>
        <linearGradient id="wb">
            <stop offset="0" stop-color="#e7e7e7"/>
            <stop offset=".81" stop-color="#cbcbcb"/>
            <stop offset="1" stop-color="#494949"/>
        </linearGradient>
        <linearGradient id="wa">
            <stop offset="0" stop-color="#f9f9f9" stop-opacity="0"/>
            <stop offset=".87" stop-color="#edd996" stop-opacity="0"/>
            <stop offset=".95" stop-color="#e1ba32" stop-opacity=".19"/>
            <stop offset="1" stop-color="#c48800" stop-opacity=".33"/>
        </linearGradient>
        <linearGradient id="wc">
            <stop offset="0"/>
            <stop offset=".84" stop-opacity=".41"/>
            <stop offset="1" stop-opacity="0"/>
        </linearGradient>
        <clipPath id="wf" clipPathUnits="userSpaceOnUse">
            <circle cx=".4751" cy=".4751" r=".4639" fill="none" stroke-width=".0297"/>
        </clipPath>
    </defs>
    <ellipse cx=".5154" cy=".5639" fill="url(#wd)" rx=".4847" ry=".5188"/>
    <circle cx=".4751" cy=".4751" r=".4639" fill="url(#we)"/>
    <circle cx=".4333" cy=".3443" r=".4639" fill="#f9f9f9" clip-path="url(#wf)"/>
    <circle cx=".4751" cy=".4751" r=".4639" fill="url(#wg)" opacity=".83"/>
    <path fill="#fff"
          d="M.4754.0236C.2287.0236.0287.2313.0287.4879a.4787.4787 0 0 0 .0498.2124c-.023-.0565-.0265-.1222-.0265-.1837C.0383.253.2185.0447.4671.0456.6379.0278.816.1742.8870.3092A.4467.4467 0 0 0 .4754.0236"/>
    <circle cx=".4751" cy=".4751" r=".4639" fill="none" stroke="#000" stroke-width=".0227" opacity="601"/>
</svg>
