<svg xmlns="http://www.w3.org/2000/svg" viewBox="0 0 512 512">
    <g transform="translate(10, 115) scale(1.15)">
        <circle cx="130" cy="131.75" r="130" fill="#000000" stroke="#000" stroke-width="20"/>
        <circle cx="290" cy="131.75" r="130" fill="#ffffff" stroke="#000" stroke-width="20"/>
        <path d="m249.13 146.36c1.109 4.8313-1.35 9.6658-3.3687 14.195-7.9589 17.846-9.8939 38.313-5.4131 57.335 0.9194 3.8927 1.1347 9.4793-2.774 10.328-2.7837 0.6108-5.1398-2.054-6.4803-4.5644-4.7509-8.8975-5.5352-19.286-7.7756-29.116-2.234-9.8328-6.7471-20.148-15.786-24.613-3.5069-1.7358-7.4253-2.4398-11.051-3.8895-3.6259-1.4561-7.181-3.973-8.2804-7.7242-0.9257-3.163 0.061-6.5413 1.1669-9.6432 2.3401-6.5317 5.6959-13.327 11.884-16.458 3.5295-1.7904 26.461-2.4333 37.946 3.6355 4.4037 2.3208 8.8203 5.6606 9.9325 10.514z"/>
        <path d="m259.4 55.376c0.3985 1.9126-0.7233 3.8123-2.5909 4.3845-2.3915 0.7328-5.7955 2.1022-9.3057 4.5805-6.7599 4.7702-13.398 10.248-17.04 17.676-2.2147 4.5131-3.2401 9.5919-5.9113 13.851-2.6712 4.2591-7.901 7.6343-12.62 5.8953-1.7743-0.6525-3.3429-1.9769-5.2266-2.099-2.7772-0.1768-5.0498 2.3851-5.8117 5.0562-0.7586 2.6744-0.466 5.5192-0.7361 8.2836-0.2475 2.4879-0.9803 4.9148-2.1183 7.1392-2.8768 5.6381-10.402 6.9335-15.114 2.713-2.4815-2.2244-4.6673-4.7156-6.162-7.6889-2.0348-4.0502-2.6101-8.6693-4.1949-12.919-0.5207-1.4015-1.7872-3.2659-2.8865-4.7349 6.1427-21.617 17.952-40.852 33.722-55.992 2.2855 3.4876 6.0624 6.8467 9.9068 7.0138 5.7313 0.254 11.086-4.5901 16.667-3.2755 2.6712 0.6301 4.8152 2.5812 7.3353 3.6613 5.0338 2.1536 11.308 3.2304 18.512 3.4555 0.8711 0.029 1.6747 0.3503 2.3048 0.8807 0.63 0.5304 1.0897 1.2665 1.2697 2.1183z"/>
        <path d="m284.69 61.882c-1.2183-0.2411-2.1569-1.1926-2.5459-2.3723-0.8968-2.7129 0.4083-5.1784 1.2344-7.676 0.6654-1.9993 0.9739-4.3716-0.2733-6.072-1.1539-1.5686-3.3044-2.054-5.2491-1.9769-1.9479 0.077-3.8637 0.6043-5.8149 0.569-4.6673-0.077-8.7849-3.4202-11.106-7.4703-0.1382-0.2411-0.27-0.4822-0.3985-0.7265-3.1534-6.0366 0.6814-13.346 7.406-14.404 11.048-1.7358 23.378-0.6686 33.462 1.2568 3.6741 0.7007 7.8849 1.8129 9.4086 5.2266 1.5558 3.4909-0.6525 7.5957-3.5873 10.052-2.9283 2.4494-6.5799 3.9634-9.3732 6.5702-4.1981 3.9088-5.9338 9.7333-9.0743 14.532-0.9193 1.4111-2.1697 2.8673-4.0887 2.4912z"/>
        <path d="m404.03 80.333c-2.6519 2.4237-5.9723 5.5449-8.4635 7.4703-1.5526 1.199-3.3591 2.4269-5.2974 2.1344-1.8225-0.2733-3.1855-1.8323-4.9116-2.4784-1.7776-0.6621-3.9087-0.2442-5.3038 1.0351-1.395 1.2825-1.9929 3.3687-1.4818 5.1945 0.8518 3.0569 4.2944 4.7991 5.2909 7.8174 0.9 2.7419-0.6107 5.8728-2.9958 7.4993-2.3851 1.6232-5.4388 1.9768-8.3125 1.7293-1.3886-0.1157-2.7837-0.3632-4.1691-0.2282-2.7997 0.2732-5.0916 1.9993-7.0846 4.0791 2.0637 2.999 3.7898 6.4449 7.1521 7.6181 2.5105 0.8711 5.2524 0.1865 7.8818-0.1961 2.6293-0.3825 5.6573-0.315 7.4831 1.6137 1.5076 1.5879 1.739 4.0534 1.1668 6.1684-0.5689 2.1087-1.8193 3.9602-3.0087 5.7956-8.2481 12.739-21.655 24.687-21.029 39.852 0.6332 15.371-4.5966 16.005-6.1781 30.894-0.6236 5.847-5.2202 9.9808-9.2511 9.2382-2.4558-0.4564-4.5677-2.025-6.2617-3.8573-5.0884-5.503-6.9078-13.279-7.4928-20.759-0.585-7.4735-0.1543-15.056-1.62-22.408-0.5658-2.848-1.6201-5.9081-4.1402-7.3578-1.9351-1.1122-4.3105-1.019-6.5381-0.8904-4.4359 0.254-11.164 0.7651-15.606 0.7651-9.6947 0-15.314-12.398-15.314-22.43 0-10.566 4.9277-19.045 9.2801-23.208 3.523-3.3783 8.2514-5.262 13.134-5.368 4.8827-0.1061 9.7172 0.9225 14.597 1.1443 5.8631 0.2636 11.771-0.6911 17.278-2.729 3.5583-1.3147 7.4156-1.3212 10.842-0.071 1.2472-2.623 1.3179-5.9146 0.1157-8.6082-1.9029-4.2688-6.2488-7.0525-10.772-8.2225-4.5227-1.1701-9.2768-0.9675-13.947-0.749l-37.409 1.723c-6.1749 0.2828-8.711-7.8818-3.4233-11.08 0.042-0.026 0.084-0.048 0.1221-0.074 3.9955-2.3562 8.7272-3.0087 13.16-4.3813 4.4263-1.3757 8.9779-3.8894 10.604-8.2289 1.0382-2.7676 0.7393-5.9177 1.9093-8.6339 2.5362-5.8598 10.244-6.9431 16.625-7.1424 6.3838-0.1993 14.076-1.1765 16.731-6.9881 1.6393-3.5841 0.6525-7.7468 0.7425-11.688 0.087-3.6934 1.6683-8.0553 3.6966-11.305 22.906 13.05 41.283 33.134 52.199 57.31z"/>
    </g>
</svg>
